<svg xmlns="http://www.w3.org/2000/svg" width="1340.999" height="862.045" viewBox="0 0 1340.999 862.045">
  <g id="그룹_3937" data-name="그룹 3937" transform="translate(-290.407 -215.612)">
    <path id="패스_2304" data-name="패스 2304" d="M1577.373,1077.644c-78.991,0-1229.685.283-1230.35-1.777l-.113-.261a1.394,1.394,0,0,1-.112-.381c-.44-1.03-177.3-290.321,97.649-491.709,107.577-78.8-6.732-130.816,78.813-218.538,98.314-100.806,205.605,10.71,314.927-35,19.316-8.069,38.7-21.057,58.1-40.987a215.78,215.78,0,0,1,35.706-29.471q2.946-1.953,5.954-3.81a238.177,238.177,0,0,1,23.823-12.854q8.256-3.871,16.825-7.16h0a276.478,276.478,0,0,1,27.885-9.026,317.074,317.074,0,0,1,41.588-8.111q9.277-1.2,18.7-1.9c122.152-9.129,259.619,42.222,330.56,117.277,14.282,15.113,79.229,93.315,28.033,200.8-32.324,67.864,103.09,132.68,151.208,210.175C1698.917,941.947,1578.483,1075.075,1577.373,1077.644Z" transform="translate(0 0)" fill="#f4e8ff"/>
    <g id="그룹_3916" data-name="그룹 3916" transform="translate(718.216 594.84)">
      <path id="패스_2305" data-name="패스 2305" d="M1219.89,953.49q8.907-24.965,30.6-37.142a92.62,92.62,0,0,1,46.066-12.186q22.577,0,43.674,12.478t29.423,36.85l155.1,431.436H1394.017l-23.175-73.69H1218.109l-22.581,73.69H1067.165Zm29.122,257.318h90.928l-45.171-147.975Z" transform="translate(-1067.165 -904.162)" fill="#861ce4"/>
    </g>
    <path id="패스_2306" data-name="패스 2306" d="M482.552,1730.352H534.6c2.79-2.366-1.93-7.739-6.861-8.1a30.42,30.42,0,0,0-7.945.94c-.716-9.514-4.807-52.281-20.223-50.563-17.333,1.924,0,18.834,4.9,28.846a238,238,0,0,1,9.209,23.068c-1.407.305-2.864.6-4.352.878-2.3-7.054-10.846-30.782-21.717-29.4-12.763,1.619-7.633,11.132,1.413,16.779,6.637,4.153,14.787,10.055,18.66,12.907a55.289,55.289,0,0,1-10.18.816C488.591,1726.311,484.239,1728.938,482.552,1730.352Z" transform="translate(-85.156 -654.524)" fill="#a8d29f"/>
    <g id="그룹_3917" data-name="그룹 3917" transform="translate(684.256 433.591)" opacity="0.5">
      <path id="패스_2307" data-name="패스 2307" d="M1228.658,788.937s-12.96-108.551-68.582-173.331c-7.392-8.608-21.54-3.128-21.3,8.217q.005.283.017.574C1139.51,643.761,1201.788,725.441,1228.658,788.937Z" transform="translate(-1065.373 -611.389)" fill="#aec3ff" opacity="0.5"/>
      <path id="패스_2308" data-name="패스 2308" d="M1175.551,828.9s-55.428-135.678-150.1-195.683a12.878,12.878,0,0,0-17.461,3.3c-2.521,3.669-3.654,9.4-.824,18.349C1014.708,678.73,1120.3,759.058,1175.551,828.9Z" transform="translate(-1005.505 -620.274)" fill="#aec3ff" opacity="0.5"/>
    </g>
    <g id="그룹_3918" data-name="그룹 3918" transform="translate(863.964 766.035)" opacity="0.5">
      <path id="패스_2309" data-name="패스 2309" d="M1339.326,1323.957s7.953-66.618,42.089-106.372a7.45,7.45,0,0,1,13.073,5.043c0,.116-.006.233-.01.352C1394.036,1234.863,1355.816,1284.989,1339.326,1323.957Z" transform="translate(-1335.177 -1214.996)" fill="#aec3ff" opacity="0.5"/>
      <path id="패스_2310" data-name="패스 2310" d="M1331.793,1348.48s34.016-83.265,92.116-120.09a7.9,7.9,0,0,1,10.717,2.026c1.547,2.251,2.242,5.768.506,11.26C1430.5,1256.323,1365.7,1305.62,1331.793,1348.48Z" transform="translate(-1331.793 -1220.448)" fill="#aec3ff" opacity="0.5"/>
    </g>
    <path id="패스_2311" data-name="패스 2311" d="M849.849,1272.651s30.755,84.429,14.692,89.181-27.488-96.549-27.488-96.549-87.4-25.612-118.668-17.3c0,0,64.245,76.806,47.506,77.458s-87.3-76.166-87.3-76.166-85.563-1.7-90.783,49.7,20.359,72.454,33.167,73.5,91.569-12.98,91.207-2.391-50.963,35.771-82.21,31.443c0,0,46.143,75.576,88.521,64.383s51.312-40.04,77.627-46.48,46.972-2.474,34.829,6.9-58.042,11.977-76.553,33.824-34.1,36.457,7.249,37.608C874.8,1500.912,892.45,1416.2,892.45,1416.2s69.787-55.718,24.284-108.237C916.733,1307.958,882.121,1276.81,849.849,1272.651Z" transform="translate(-133.291 -463.033)" fill="#aec3ff" opacity="0.3"/>
    <path id="패스_2312" data-name="패스 2312" d="M1934.08,1151.223c29.065-23.2-5.321-74.309-5.321-74.309s-73.993-12.748-80.125-23.13,65.391-1.453,65.391-1.453c-7.164-22.162-56.735-65.059-56.735-65.059s-65.75,32.582-69.137,21.009,59.691-25.88,59.691-25.88c-15.1-17.905-47.442-26.7-47.442-26.7-49.519-7.058-56.025,56.893-56.025,56.893s-23.03,10.8-56.034,7.993h0a86.545,86.545,0,0,0-16.181-.774l2.433,5.611c1.7-.194,3.376-.32,5.015-.366a.037.037,0,0,1,.03,0l.071,0c1.034.009,2.508.026,4.309.063h.007s.005,0,.009,0c4.1.258,7.081.342,9.188.3l.02,0c12.762.57,29.7,2.019,34.716,5.705a11.862,11.862,0,0,1,2.053-2.317l-2.053,2.317c-16.419,18.53.973,68.043,18.064,92.422s19.58,9.442,25.582-10.277-10.315-48.507-9.38-59.508,11.39-.048,17.752,18.385-7.609,35.087,2.14,65.093,73.469,28.461,73.469,28.461c-14.8-17.22-19.292-57.657-13.026-62s28.485,48.779,34.113,56.12S1905.014,1174.421,1934.08,1151.223Z" transform="translate(-620.735 -332.229)" fill="#aec3ff" opacity="0.5"/>
    <path id="패스_2313" data-name="패스 2313" d="M1872.224,608.459c-9-29.137-58.318-18.2-58.318-18.2s-31.9,52.662-41.663,54.232,18.482-50.35,18.482-50.35c-19.062-1.172-66.66,23.815-66.66,23.815s5.173,59.952-4.676,59.07-1.872-53.318-1.872-53.318c-18.192,6.161-34.6,28.213-34.6,28.213-20.223,35.685,26.644,59.811,26.644,59.811s1.344,20.816-10.687,45.168h0a70.975,70.975,0,0,0-5.439,12.12l5.012-.176q.544-2.037,1.224-3.939a.03.03,0,0,1,.009-.023c.007-.018.014-.036.02-.055.317-.786.772-1.906,1.339-3.27l0-.005s0,0,0-.007c1.426-3.052,2.383-5.3,2.981-6.924a.043.043,0,0,0,0-.015c4.258-9.572,10.438-22.064,14.757-24.791a9.688,9.688,0,0,1-1.154-2.261l1.154,2.261c9.225,18.084,52.232,19.643,75.961,13.9s13.074-12.117-.179-22.607-40.118-6.659-48.236-10.669,3.376-8.709,19.353-8.043,24.5,16.321,50.329,17.869,43.737-47.556,43.737-47.556c-17.579,6.139-49.791-2.548-51.232-8.633s45.77-7.129,53.06-9.226S1881.224,637.6,1872.224,608.459Z" transform="translate(-623.293 -167.401)" fill="#aec3ff" opacity="0.5"/>
    <path id="패스_2314" data-name="패스 2314" d="M1358.066,462.595s13.956-26.27,47.33-23.351c0,0,48.453-43.785,100.121-5.838,0,0,54.923-9.4,95.6,8.141,27.12,11.7,36.077,23.967,36.077,23.967Z" transform="translate(-479.632 -90.889)" fill="#f8fcff"/>
    <path id="패스_2315" data-name="패스 2315" d="M1750.713,392.2s9.9-19.9,33.562-17.688c0,0,34.359-33.167,71-4.422,0,0,38.947-7.122,67.791,6.167,19.231,8.86,25.584,18.155,25.584,18.155Z" transform="translate(-656.024 -64.133)" fill="#f8fcff"/>
    <path id="패스_2316" data-name="패스 2316" d="M748.554,846.628s8.924-19.9,30.263-17.688c0,0,30.98-33.167,64.017-4.422,0,0,35.118-7.122,61.125,6.166,17.34,8.86,23.068,18.155,23.068,18.155Z" transform="translate(-205.817 -268.277)" fill="#f8fcff"/>
    <g id="그룹_3920" data-name="그룹 3920" transform="translate(551.633 644.343)">
      <path id="패스_2317" data-name="패스 2317" d="M790.509,1207.09c0-.277,4.058-8.667,2.767-9.313s-3.6-.548-3.872.922S790.509,1207.09,790.509,1207.09Z" transform="translate(-775.785 -1085.397)" fill="#ffb27d"/>
      <path id="패스_2318" data-name="패스 2318" d="M780.962,1206.276c0-.823-.951-13.386-3.069-15.886s-6.446-6.057-7.807-5.948-6.683,7.181-5.083,12.6,8.352,12.752,8.352,12.752Z" transform="translate(-764.706 -1079.576)" fill="#ffb27d"/>
      <g id="그룹_3919" data-name="그룹 3919" transform="translate(1.464 86.442)">
        <path id="패스_2319" data-name="패스 2319" d="M792.26,1176.029l-12.337,3.7a.773.773,0,0,1-.963-.519l-7.05-23.523a.774.774,0,0,1,.519-.963l12.336-3.7a.773.773,0,0,1,.963.519l7.051,23.523A.774.774,0,0,1,792.26,1176.029Z" transform="translate(-769.392 -1150.992)" fill="#f1a34f"/>
        <path id="패스_2320" data-name="패스 2320" d="M787.028,1177.753l-11.19,3.354a1.372,1.372,0,0,1-1.708-.92l-6.707-22.377a1.371,1.371,0,0,1,.921-1.708l11.189-3.354a1.372,1.372,0,0,1,1.708.921l6.707,22.376A1.372,1.372,0,0,1,787.028,1177.753Z" transform="translate(-767.365 -1151.754)" fill="#d86713"/>
      </g>
      <path id="패스_2321" data-name="패스 2321" d="M772.163,1180s5.137-7.9,6.392-7.464c1.792.627-4.658,10.657-4.658,10.657s4.78-7.495,5.525-6.931c1.7,1.284-1.006,5.994-3.691,9.6,0,0,4.805-4.4,4.962-3.609.549,2.776-5.276,9.5-5.276,9.5l-3.255-7.435Z" transform="translate(-768.056 -1074.221)" fill="#ffb27d"/>
      <path id="패스_2322" data-name="패스 2322" d="M765.166,1184.607c.248-.967,1.5-19.842,2.04-18.051s1.814,11.688,1.814,11.688Z" transform="translate(-764.913 -1071.488)" fill="#ffb27d"/>
      <path id="패스_2323" data-name="패스 2323" d="M853.573,1167.879s-.539,20.522-6.457,37.084c-4.675,13.08-12.707,23.691-26.486,19.772q-2.113-.6-4.1-1.295a.043.043,0,0,0-.017-.006c-27.993-9.751-37.05-32.071-37.05-32.071,2.085-3.437,8.124-4.7,8.124-4.7,5.638.3,30.41,10.822,31.992,11.142,5.729,1.152,10.358-30.335,14.083-41.243s18.963-15.79,18.963-15.79Z" transform="translate(-771.337 -1059.958)" fill="#f99746"/>
      <path id="패스_2324" data-name="패스 2324" d="M877.89,1230.462l-.539,14.786c-4.675,13.08-12.707,23.691-26.486,19.772q-2.113-.6-4.1-1.295c.441.057,8.874,1.2,12.4-2.332,3.626-3.632,3.248-15.664,9.929-23.684S877.89,1230.462,877.89,1230.462Z" transform="translate(-801.572 -1100.242)" fill="#ed7d2b"/>
      <path id="패스_2325" data-name="패스 2325" d="M884.318,1719.074s6.889,6.287,5.545,10.754-7.561,7.446-8.4,12.906-4.2,8.438-7.225,8.438h-14.42s-2.227-3.842,3.151-5,7.4-7.575,7.068-13.531a104.907,104.907,0,0,1,.5-13.9l11.426-2.647Z" transform="translate(-807.227 -1318.416)" fill="#0e2949"/>
      <path id="패스_2326" data-name="패스 2326" d="M766.856,1751.062h42.458a3.074,3.074,0,0,0,3.078-2.985,21.685,21.685,0,0,0-1.518-9.157c-2.267-5.026-3.7-5.9,5.874-20.525-2.878,2.963-10.639,1.608-17.188.727-.8,1.3-12.952,20.071-15.632,22C780.967,1743.246,767.768,1742.488,766.856,1751.062Z" transform="translate(-765.672 -1319.449)" fill="#0e2949"/>
      <path id="패스_2327" data-name="패스 2327" d="M854.455,1346.464s-30.784,58.086-39.149,90.071c-6.494,24.826,33.133,120.885,33.133,120.885a31.719,31.719,0,0,0,8.522-2.292c5.188-2.038,7.163-7.508,7.163-7.508s-2.35-68.683-10.37-101.912c-1.8-7.458,8.722-31.517,26.482-44.694s25.155-55.573,14.583-58.438S854.455,1346.464,854.455,1346.464Z" transform="translate(-787.114 -1150.299)" fill="#707fe5"/>
      <path id="패스_2328" data-name="패스 2328" d="M879.714,1320.27s-32.362,118.631-42.179,145.269-25.386,83.181-25.386,83.181a41.021,41.021,0,0,0,22.447,2.434s47.32-69.322,49.38-99.964c.952-14.161,48.551-70.306,43.246-106.916Z" transform="translate(-786.019 -1140.596)" fill="#8c9df4"/>
      <path id="패스_2329" data-name="패스 2329" d="M954.03,1273.389s-6.887,3.471-19.061,4.491h-.012c-13.939,1.169-34.816-.882-60.242-15.039,0,0-7.092-5.844,1.621-30.7,6.594-18.815,9.809-58.484,17.858-94.634,0,0,26.113-8.193,47.065-1.111,16.007,5.413,14.415,29.98,17.371,55.561.275,2.389.59,4.784.962,7.173C963.964,1227.138,954.03,1273.389,954.03,1273.389Z" transform="translate(-812.904 -1056.7)" fill="#f99746"/>
      <path id="패스_2330" data-name="패스 2330" d="M895.587,1028.628s17.824-29.014,31.626-14.083c0,0,9.024,2.306,14.193,16.354,5.273,14.333-2.94,26.991-8.424,24.946-3.517-1.311-5.163,4.751-5.163,4.751Z" transform="translate(-823.503 -1001.334)" fill="#233862"/>
      <path id="패스_2331" data-name="패스 2331" d="M948.046,1004.966s1.227-12.012,18.778-10.843c0,0-8.3.149-10.082,3.611,0,0,6.035-3.891,10.437-2s6.268,10.131,6.03,12.754-3.619,10.816-6.578,11.243-6.835-1.666-6.835-1.666Z" transform="translate(-847.069 -994.043)" fill="#233862"/>
      <path id="패스_2332" data-name="패스 2332" d="M943.836,1118.626c-1.648-4.393-4.1-9.007-6.074-23.039l-1.054.37-17.716,6.24s1.242,5.679,2.034,11.084c.324,2.21.556,6.154.707,9.6.155,3.521,3.618,3.854,7.138,3.691C938.237,1126.138,943.4,1122.644,943.836,1118.626Z" transform="translate(-834.016 -1039.66)" fill="#ffb27d"/>
      <path id="패스_2333" data-name="패스 2333" d="M918.991,1102.5s1.242,5.68,2.034,11.085c10.164-1.759,14.216-11.846,15.682-17.325Z" transform="translate(-834.016 -1039.962)" fill="#e8945b"/>
      <path id="패스_2334" data-name="패스 2334" d="M925.688,1062.675s4.13-9.221,4.372-16.632c.172-5.291-5.211-24.034-24.029-18.51a26.382,26.382,0,0,0-10.237,5.654c-3.766,3.419-8.91,10.37.227,26.086l2.561,5.385Z" transform="translate(-821.399 -1008.635)" fill="#233862"/>
      <path id="패스_2335" data-name="패스 2335" d="M904.176,1083.128s24.2-3.082,22.051-18.125-.477-25.571-16.021-24.24-17.719,7.5-18.222,12.7S897.825,1083.542,904.176,1083.128Z" transform="translate(-821.872 -1014.98)" fill="#ffb27d"/>
      <path id="패스_2336" data-name="패스 2336" d="M905.029,1039.763s9.155,16.693,19.677,17.839,14.531-2.206,14.531-2.206a29.028,29.028,0,0,1-11.844-15.62S908.806,1030.646,905.029,1039.763Z" transform="translate(-827.744 -1012.763)" fill="#233862"/>
      <path id="패스_2337" data-name="패스 2337" d="M899.3,1043.36s-4.369,4.651-5.021,8.655-.056,11.966-2.393,12.029c0,0-6.71-11.276-2.09-18.867C894.7,1037.127,899.3,1043.36,899.3,1043.36Z" transform="translate(-820.173 -1015.164)" fill="#233862"/>
      <path id="패스_2338" data-name="패스 2338" d="M906.87,1042.389s7.374,17.8,21.029,21.872c0,0-14.438-9.508-17.283-21.548S906.87,1042.389,906.87,1042.389Z" transform="translate(-828.571 -1013.464)" fill="#233862"/>
      <path id="패스_2339" data-name="패스 2339" d="M1002.025,1319.435s-6.887,3.471-19.061,4.491h-.012s-10-12.541,1.157-26.594-.871-39.984,7.723-54.089c5.981-9.814,11.8-7.528,14.792-5.237.275,2.389.59,4.784.962,7.173C1011.959,1273.184,1002.025,1319.435,1002.025,1319.435Z" transform="translate(-860.899 -1102.746)" fill="#ed7d2b"/>
      <path id="패스_2340" data-name="패스 2340" d="M1094.688,1349.634s1.484,3.454,3.556,3.685c3.384.378,9.83,3.213,10.842,3.814,2.743,1.628,2.557,8.914-.186,9.6s-4.114-5.428-12.685-7.066c-2.906-.555-7.142,1.454-8.856-5.51Z" transform="translate(-909.654 -1153.787)" fill="#ffb27d"/>
      <path id="패스_2341" data-name="패스 2341" d="M993.56,1138.591c24.922,9.167,25.842,53.316,36.953,72.76,11.458,20.053,22.617,46.446,22.617,46.446s-.2.79-4.474,2.014a17.864,17.864,0,0,1-6.15.5s-23.545-21.3-29.942-29.7-21.481-47.385-21.481-47.385S983.666,1134.953,993.56,1138.591Z" transform="translate(-865.204 -1058.891)" fill="#f99746"/>
      <path id="패스_2342" data-name="패스 2342" d="M1088.477,1360.977s.605,2.966,4.28,5.366,6.623,4.8,6.978,3.313-2.045-3.085-2.616-5.828S1088.477,1360.977,1088.477,1360.977Z" transform="translate(-910.156 -1158.883)" fill="#ffb27d"/>
    </g>
    <g id="girl_2" data-name="girl 2" transform="translate(960.128 815.722)">
      <path id="패스_2343" data-name="패스 2343" d="M1760.515,1305.98a35.5,35.5,0,0,0-31.852,9.093,94.62,94.62,0,0,0-11.6,13.272c-9.334,13.034,8.539,25.935,6.163,30.351s-7.884,7.9-5.474,17.123,18.3,21.185,23.486,21.717c52.517,5.393,75.309-23.56,57.753-39.168s-10.392-38.249-24.645-47.045A43.746,43.746,0,0,0,1760.515,1305.98Z" transform="translate(-1599.812 -1305.209)" fill="#162c51"/>
      <path id="패스_2344" data-name="패스 2344" d="M1648.837,1456.158s-47.928,23.219-56.906,22.827-65.094-20.153-65.094-20.153l1.409,9.517s42.692,24.553,57.618,25.946c14.695,1.372,64.941-13.187,69.791-16.262S1662.933,1459.27,1648.837,1456.158Z" transform="translate(-1515.578 -1373.021)" fill="#ed985f"/>
      <path id="패스_2345" data-name="패스 2345" d="M1738.767,1453.607a47.556,47.556,0,0,0,16.627,7.076c25.63,5.922,35.451-15.74,39.14-30.61a22.022,22.022,0,0,0-8.683-2.667c-1.852-.219-3.8-.363-5.414-.443-2.878-2.2-7.166-11.226-8.115-25.234l-1.205.323-20.2,5.529s.925,6.421,1.379,12.49c.351,4.749.405,9.288-.494,10.4-1.576.342-2.522.565-2.522.565a.056.056,0,0,1-.01.02A130.02,130.02,0,0,0,1738.767,1453.607Z" transform="translate(-1610.785 -1348.57)" fill="#ffb27d"/>
      <path id="패스_2346" data-name="패스 2346" d="M1760.827,1407.852s.929,6.416,1.379,12.49c11.443-1.146,16.754-12.041,18.822-18.018Z" transform="translate(-1620.695 -1348.837)" fill="#ed985f"/>
      <path id="패스_2347" data-name="패스 2347" d="M1745.4,1385.263s27.162-1.5,25.969-18.4,1.508-28.478-15.885-28.235-20.3,6.93-21.277,12.668S1738.3,1385.218,1745.4,1385.263Z" transform="translate(-1608.681 -1320.221)" fill="#ffb27d"/>
      <path id="패스_2348" data-name="패스 2348" d="M1732.587,1339c3.829-5.384,7.078-4.5,8.963-3.095,14.245-9.217,24.665,2.151,24.665,2.151a32.37,32.37,0,0,0,11.927,18.315s-4.815,3.849-16.336,1.3c-14.742-3.267-19.8-16.051-20.491-18.014-1.55,1.606-3.552,2.628-5.086,6.112-1.823,4.139-2.969,6.54-3,13.338C1733.229,1359.1,1726.844,1347.076,1732.587,1339Z" transform="translate(-1606.932 -1317.38)" fill="#162c51"/>
      <path id="패스_2349" data-name="패스 2349" d="M1789.144,1527.094c2.453-12.539,10.451-62.638,2.453-78.76-2.872-5.791-14.143-6.314-26.509-5.806-3.848,2.485-18.511,11.872-24.534,10.7-.064-.012-.182-.04-.338-.079-2.836-.709-3.906-2.7-1.541-4.42a125.156,125.156,0,0,0-13.036,1.816c-4.3.809-16.093,8.049-16.093,8.049s5.35,8.323,13.955,11.962c-1.463,13.088.712,18.862,14.29,49.092,11.473,25.552-1.548,48.559-1.548,48.559s67.54,54.3,67.917,26.654C1804.443,1574.047,1786.01,1543.121,1789.144,1527.094Z" transform="translate(-1597.659 -1366.831)" fill="#8ca0f4"/>
      <path id="패스_2350" data-name="패스 2350" d="M1700.4,1656.88a12.56,12.56,0,0,1-9.033-5.5q-.488-.731-1.044-1.572c-7.688-11.638-10.68-47.281-27.973-85.251-4.212-9.244-19.332-10.907-23.454-21.357,0,0-10.148-33.871,19.422-34.87s79.192,94.244,79.976,104.233C1739.056,1622.238,1757.846,1663.361,1700.4,1656.88Z" transform="translate(-1565.166 -1396.455)" fill="#162c4f"/>
      <path id="패스_2351" data-name="패스 2351" d="M1538.551,1759.412h42.087s1.573-6.891-1.189-11.582c-2.447-4.149-1.509-6.513.3-9.947a15.967,15.967,0,0,1-7.088,1.371,14.567,14.567,0,0,1-6.259-2.26c-1.812,2.12-9.567,11.145-11.991,12.934C1551.662,1751.957,1539.4,1751.234,1538.551,1759.412Z" transform="translate(-1520.841 -1499.183)" fill="#aa3c3c"/>
      <path id="패스_2352" data-name="패스 2352" d="M1613.323,1517.028c-2.534,19-12.431,78.966-29.888,108.223-5.628,9.432,14.18,14.72,14.287,14.692,2.658-.7,7.083-4.931,9.124-6.77,14.173-12.773,42.944-48.942,42.944-77.94,0-14.139.248-41.142-10.033-48.005C1633.424,1503,1614.329,1509.482,1613.323,1517.028Z" transform="translate(-1540.552 -1395.363)" fill="#162c4f"/>
      <path id="패스_2353" data-name="패스 2353" d="M1741.457,1655.161a30.994,30.994,0,0,1-3.486-7.949c-2.263-7.94-3.067-13.717-7.413-26.084-4.565-12.983-9.98-28.955-16.748-45.573-2.089-5.13-4.307-10.322-6.666-15.506-4.212-9.244-15.8-7.966-19.922-18.417,0,0-16.085-36.227,13.484-37.226s85.758,96.911,88.987,106.394C1793.228,1621.18,1805.929,1665.106,1741.457,1655.161Z" transform="translate(-1585.667 -1394.693)" fill="#2b478b"/>
      <path id="패스_2354" data-name="패스 2354" d="M1594.646,1759.412h42.086s1.574-6.891-1.189-11.582c-2.446-4.149-1.509-6.513.3-9.947a15.968,15.968,0,0,1-7.088,1.371,14.562,14.562,0,0,1-6.259-2.26c-1.812,2.12-9.568,11.145-11.992,12.934C1607.757,1751.957,1595.493,1751.234,1594.646,1759.412Z" transform="translate(-1546.041 -1499.183)" fill="#c1514c"/>
      <path id="패스_2355" data-name="패스 2355" d="M1755.807,1656.294c-4.565-12.983-9.981-28.955-16.748-45.573,1.767-12.59,5.58-23.606,11.991-28.045C1751.05,1582.675,1766.6,1630.858,1755.807,1656.294Z" transform="translate(-1610.916 -1429.857)" fill="#233862"/>
      <path id="패스_2356" data-name="패스 2356" d="M1663.09,1516.3c-2.535,19-6.1,80.313-23.561,109.57-5.628,9.432,14.181,14.72,14.287,14.692,2.657-.7,7.083-4.931,9.123-6.77,14.173-12.773,42.945-48.942,42.945-77.94,0-14.139-16.593-40.007-26.875-46.87A10.341,10.341,0,0,0,1663.09,1516.3Z" transform="translate(-1565.752 -1395.978)" fill="#2b478b"/>
      <g id="그룹_3921" data-name="그룹 3921" transform="translate(0 56.733)">
        <path id="패스_2357" data-name="패스 2357" d="M1515.683,1412.81l43.1-4.578a2.783,2.783,0,0,1,2.894,1.777l15.421,40.521a2.783,2.783,0,0,1-2.488,3.769l-42.768,1.725a2.784,2.784,0,0,1-2.679-1.707l-15.754-37.669A2.782,2.782,0,0,1,1515.683,1412.81Z" transform="translate(-1509.449 -1408.217)" fill="#233862"/>
        <path id="패스_2358" data-name="패스 2358" d="M1508.885,1413.522l43.1-4.578a2.782,2.782,0,0,1,2.894,1.777l15.421,40.521a2.783,2.783,0,0,1-2.488,3.769l-42.768,1.725a2.782,2.782,0,0,1-2.679-1.706l-15.754-37.669A2.781,2.781,0,0,1,1508.885,1413.522Z" transform="translate(-1506.395 -1408.537)" fill="#2b478b"/>
        <path id="패스_2359" data-name="패스 2359" d="M1554.156,1449.485a1.772,1.772,0,0,1,1.666-2.619,4.143,4.143,0,0,1,3.573,2.619,1.772,1.772,0,0,1-1.666,2.619A4.143,4.143,0,0,1,1554.156,1449.485Z" transform="translate(-1527.775 -1425.579)" fill="#ebf3fa"/>
        <path id="패스_2360" data-name="패스 2360" d="M1513.19,1423.172a.87.87,0,0,1,.818-1.286,2.036,2.036,0,0,1,1.755,1.286.871.871,0,0,1-.819,1.287A2.035,2.035,0,0,1,1513.19,1423.172Z" transform="translate(-1509.41 -1414.357)" fill="#ebf3fa"/>
      </g>
      <path id="패스_2361" data-name="패스 2361" d="M1736.382,1453.193s-59.735,22-68.71,21.547c-5.8-.291-54.023-17.241-54.023-17.241l-4.329,8.189s46.935,30.166,59.838,30.017c25.474-.294,68.458-15.931,73.309-19.005S1750.479,1456.3,1736.382,1453.193Z" transform="translate(-1552.632 -1371.689)" fill="#ffb27d"/>
      <path id="패스_2362" data-name="패스 2362" d="M1591.912,1455.411s-4.329-6.662-8.64-6.858-11.755,2.939-14.3,3.429-9.8,2.841-7.641,6.368,12.148,4.31,16.458,3.526,9.8,1.724,9.8,1.724Z" transform="translate(-1530.895 -1369.601)" fill="#ffb27d"/>
      <path id="패스_2363" data-name="패스 2363" d="M1595.244,1445.712s-6.855-3.144-8.814-3.733-1.568.01-.979,1.866,4.114,3.63,4.114,4.212S1595.244,1445.712,1595.244,1445.712Z" transform="translate(-1541.695 -1366.554)" fill="#ffb27d"/>
      <path id="패스_2364" data-name="패스 2364" d="M1518.831,1449.119s2.734-9.009,5.737-6.18c3.126,2.945,1.228,5.894.845,9.649-.731,7.182-2.184,6.873-3.1,6.549S1517.814,1452.732,1518.831,1449.119Z" transform="translate(-1511.901 -1366.836)" fill="#ffb27d"/>
      <path id="패스_2365" data-name="패스 2365" d="M1518.595,1457.1a11.442,11.442,0,0,0,5.9,11.672l-2.157-5.278Z" transform="translate(-1511.829 -1373.444)" fill="#ffb27d"/>
      <path id="패스_2366" data-name="패스 2366" d="M1745.39,1405.157s2.568-1.014,9.794-.43c0,0-.384,2.819-5.712,3.1A4.25,4.25,0,0,1,1745.39,1405.157Z" transform="translate(-1613.76 -1349.835)" fill="#fff"/>
      <path id="패스_2367" data-name="패스 2367" d="M1784.143,1462.911s5.342,16.913,23.691,20.761c0,0,30.3-9.335,15.214-29.978C1823.048,1453.695,1808.131,1442.611,1784.143,1462.911Z" transform="translate(-1631.17 -1370.558)" fill="#8ca0f4"/>
      <path id="패스_2368" data-name="패스 2368" d="M1517.576,1454.355s-1.259-4.22-1.333-4.951.015-1.1.667-.586a3.541,3.541,0,0,1,1.346,3.147C1517.963,1453.246,1517.576,1454.355,1517.576,1454.355Z" transform="translate(-1510.81 -1369.617)" fill="#ffb27d"/>
    </g>
    <g id="그룹_3924" data-name="그룹 3924" transform="translate(858.146 417.011)">
      <g id="그룹_3922" data-name="그룹 3922" transform="translate(0)">
        <path id="패스_2369" data-name="패스 2369" d="M1485.526,1056.436a3.509,3.509,0,0,0-.626,3.755.026.026,0,0,0,.009.018c.906,2.5,3.9,5.3,7.372,8.087.444.359.839.685,1.183.986.09.079.181.158.265.239.07.061.137.125.2.184,3.24,2.987,2.021,3.672,7.843,9.733,6.638,6.906,11.208,7.03,12.508,6.4,1.1-.537-1.134-4.2-3.611-8.317-.12-.2-.238-.4-.36-.6-.331-.547-.658-1.1-.985-1.653-2.9-4.955-2.157-7.279-1.468-14.654.559-5.993,9.322-33.478,9.322-33.478l-12.72-2.192s-3.831,21.886-8.052,25.257c-2.257,1.8-4.783,1.819-6.953,3.151q-.23.139-.451.285A16.7,16.7,0,0,0,1485.526,1056.436Z" transform="translate(-1394.632 -780.594)" fill="#ffb27d"/>
        <path id="패스_2370" data-name="패스 2370" d="M1485.526,1079.839a3.509,3.509,0,0,0-.626,3.755.027.027,0,0,0,.009.018c1.109,2.5,4.025,5.28,7.384,8.062.439.365.826.7,1.171,1.012.09.079.181.158.265.239.07.061.137.125.2.185,3.24,2.987,2.021,3.671,7.843,9.732,6.638,6.906,11.208,7.031,12.508,6.4,1.1-.537-1.134-4.2-3.611-8.317a28.288,28.288,0,0,1-11.833-8.719c-3.851-4.915-6.467-11.179-9.087-15.025l-.747-.14A16.707,16.707,0,0,0,1485.526,1079.839Z" transform="translate(-1394.632 -803.997)" fill="#233862"/>
        <path id="패스_2371" data-name="패스 2371" d="M1664.2,1045.333c.785,3.926,6.382,3.272,12.636,1.743s4.767.289,13.666-.7,11.6-4.3,11.867-5.627c.243-1.174-4.154-1.588-8.872-2.132-.593-.067-1.188-.14-1.784-.214-5.325-.668-9.225-4.1-14.063-6.926-4.582-2.674-11.42-13.565-11.42-13.565l-12.205.967s6.4,9.728,8.882,13.957c1.458,2.488,1.38,5.778,1.2,8.317A15.645,15.645,0,0,0,1664.2,1045.333Z" transform="translate(-1470.736 -777.436)" fill="#ffb27d"/>
        <path id="패스_2372" data-name="패스 2372" d="M1684.984,1063.965c6.253-1.527,4.767.289,13.667-.7s11.6-4.3,11.867-5.627c.243-1.174-4.154-1.589-8.872-2.132l-.044.091a25.086,25.086,0,0,1-12.746,3.961c-6.038.147-12.434-1.583-16.6-1.516a15.661,15.661,0,0,0,.094,4.175C1673.134,1066.148,1678.731,1065.494,1684.984,1063.965Z" transform="translate(-1478.882 -794.324)" fill="#233862"/>
        <path id="패스_2373" data-name="패스 2373" d="M1553.422,910.039l-11.41,30.7-14.9,40.088a24.142,24.142,0,0,1-7.914-.723,34.3,34.3,0,0,1-7.653-3.725s4.136-43.043,11.852-67.752c1.977-6.342,4.194-11.472,6.639-14.359C1542,880.133,1553.422,910.039,1553.422,910.039Z" transform="translate(-1406.729 -720.184)" fill="#707fe5"/>
        <path id="패스_2374" data-name="패스 2374" d="M1476.5,832.466c-6.5-2.094-23.442-.032-41.822,3.294a12.467,12.467,0,0,1-12.873-5.813h0l-46.258-3.613s-15.264,33.85-6.907,55.419c1.228,3.17,3.924,5.149,8.084,5.215h0s27.952.039,36.892.039c23,0,48.686-15.814,52.009-16.478,5.438-1.088,7.613,9.788,13.05,21.207s51.115,50.57,51.115,50.57,7.019.07,9.92-1.017a9.773,9.773,0,0,0,4.26-2.689S1493.353,837.9,1476.5,832.466Z" transform="translate(-1341.404 -691.37)" fill="#8c9df4"/>
        <path id="패스_2375" data-name="패스 2375" d="M1396.853,584.025a16.412,16.412,0,0,0-8.836-2.3,24.512,24.512,0,0,1-4.266-.259c-17.655-2.589-28.286,23.055-28.91,30.8-1.143,14.226-8.669,16.395-19.262,25.3-21.239,17.863-15.01,38.622-3.4,46.335,6.968,4.628,19.25,0,19.25,0,.174.121,33.591-18.681,50.063-27.751C1426.19,652.647,1406.773,589.931,1396.853,584.025Z" transform="translate(-1321.369 -581.284)" fill="#152949"/>
        <path id="패스_2376" data-name="패스 2376" d="M1423.263,682.086c.072.047-8.1,2.839-13.573.417-5.144-2.273-9.041-10.736-8.964-10.74,2.34-.108,4.908-2.154,6.887-15.577l1,.357,16.753,6.029s-1.214,5.375-2,10.494C1422.7,677.361,1422.348,681.478,1423.263,682.086Z" transform="translate(-1356.943 -614.933)" fill="#ffb27d"/>
        <path id="패스_2377" data-name="패스 2377" d="M1431.794,662.863s-.668,2.9-1.643,8.318c-9.623-1.732-13.754-9.144-15.109-14.347Z" transform="translate(-1363.374 -615.224)" fill="#ed975d"/>
        <path id="패스_2378" data-name="패스 2378" d="M1432.92,644.58S1410,641.5,1412.134,627.259s.616-24.236,15.341-22.874,16.747,7.223,17.19,12.151S1438.937,645.013,1432.92,644.58Z" transform="translate(-1362.005 -591.607)" fill="#ffb27d"/>
        <path id="패스_2379" data-name="패스 2379" d="M1438.465,607.7s-14.673,12.645-24.653,13.664-13.759-2.185-13.759-2.185a38.972,38.972,0,0,0,9.423-12.766,7.021,7.021,0,0,1,5.786-4.138C1422.388,601.662,1435.9,601.381,1438.465,607.7Z" transform="translate(-1356.641 -590.579)" fill="#152949"/>
        <path id="패스_2380" data-name="패스 2380" d="M1453.144,608.08s4.908,4.746,6.454,8.266c1.492,3.4,1.939,11.522.751,14.749,0,0,7.648-14.871,3.318-22.1C1459.076,601.337,1453.144,608.08,1453.144,608.08Z" transform="translate(-1380.491 -592.09)" fill="#233862"/>
        <path id="패스_2381" data-name="패스 2381" d="M1426.519,728.117c-.693,46.4-.191,36.7-5.266,41.105-1.223,1.06-4.661,1.692-9.186,1.991-14.227.944-39.237-1.4-40.188-4.029-3.281-9.1-.965-11.924-3.7-25.852-.285-1.481-.639-3.084-1.053-4.831-2.283-9.566-4.5-12.821,3.594-28.189,7.344-13.922,14.974-25.221,15.661-24.813,19.377,11.5,20.94,1.834,20.94,1.834S1426.859,705.485,1426.519,728.117Z" transform="translate(-1340.898 -627.198)" fill="#2b478b"/>
        <path id="패스_2382" data-name="패스 2382" d="M1542.012,955.548l-14.9,40.088a24.146,24.146,0,0,1-7.914-.723,34.3,34.3,0,0,1-7.653-3.725s4.136-43.043,11.852-67.751Z" transform="translate(-1406.729 -734.992)" fill="#8c9df4"/>
        <path id="패스_2383" data-name="패스 2383" d="M1441.829,686.833s19.939,3.38,22.28,11.965,10.049,60.691,10.049,60.691-5.622,5.491-10.3.809-14.737-48.753-14.737-48.753Z" transform="translate(-1375.408 -628.701)" fill="#2b478b"/>
        <path id="패스_2384" data-name="패스 2384" d="M1414.65,802.633c-14.227.944-39.237-1.4-40.188-4.029-3.281-9.1-.965-11.924-3.7-25.852l6.862-19.323s-1.135,21.518,5.211,27.177,25.982,10.925,29.066,15.654A17.294,17.294,0,0,1,1414.65,802.633Z" transform="translate(-1343.481 -658.618)" fill="#162c4f"/>
        <path id="패스_2385" data-name="패스 2385" d="M1420.854,824.562s14.036-3.125,16.3-1.879,7.8,5.782,8.493,7.36-5.042-1.2-6.908-1.7c-1.208-.324-4.388.781-5.963,1.306-6.624,2.208-10.684,1.072-10.684,1.072Z" transform="translate(-1365.985 -689.598)" fill="#ffb27d"/>
        <path id="패스_2386" data-name="패스 2386" d="M1366.7,683.488s-18.847,1.161-25.371,10.261c-9.184,12.81-27.4,67.4-16.962,74.681,11.759,8.2,53.517,2.145,53.517,2.145s1.39-6.5-.544-9.637-33.353-8.217-34.8-9.668,18.127-28.277,18.127-32.628S1366.7,683.488,1366.7,683.488Z" transform="translate(-1321.231 -627.198)" fill="#2b478b"/>
        <path id="패스_2387" data-name="패스 2387" d="M1451.684,830.015s2.941,3.794,3.905,4.246a2.875,2.875,0,0,0,1.587.34l-1.982-3.567Z" transform="translate(-1379.835 -693.023)" fill="#ffb27d"/>
        <path id="패스_2388" data-name="패스 2388" d="M1450.45,822.922l8.551,4.152a1.525,1.525,0,0,1-1.417.548,20.424,20.424,0,0,1-3.708-1.02Z" transform="translate(-1379.281 -689.837)" fill="#ffb27d"/>
      </g>
      <g id="그룹_3923" data-name="그룹 3923" transform="translate(54.868 94.221)">
        <path id="패스_2389" data-name="패스 2389" d="M1510.17,840.645h-89.316v1.971h88.523Z" transform="translate(-1420.854 -792.02)" fill="#f99746"/>
        <path id="패스_2390" data-name="패스 2390" d="M1458.775,802.955h67.638l20.347-50.6h-67.534Z" transform="translate(-1437.889 -752.358)" fill="#f99746"/>
        <path id="패스_2391" data-name="패스 2391" d="M1545.221,795.664a2.343,2.343,0,0,0-2.3-3.22,4.615,4.615,0,0,0-4.144,3.22,2.343,2.343,0,0,0,2.3,3.22A4.614,4.614,0,0,0,1545.221,795.664Z" transform="translate(-1473.772 -770.366)" fill="#fff"/>
      </g>
    </g>
    <g id="그룹_3928" data-name="그룹 3928" transform="translate(1210.534 605.596)">
      <g id="man" transform="translate(0)">
        <path id="패스_2392" data-name="패스 2392" d="M2399.039,1105.184c-1.981,5.329-5.417,11.514-9.023,13.052a13.965,13.965,0,0,0-5.792,4.208l-3.3-1.916-3.943-2.292s.094-.437.286-1.151.486-1.7.885-2.794a3.813,3.813,0,0,0,.469-3.508,8.141,8.141,0,0,1,.673-6.805c1.264-1.837,2.484-6.365,3.245-6.23,1.844.317-.906,6.54-.118,7.695a1.361,1.361,0,0,0,1.771.606c.011-.006.021-.01.032-.017,5.172-2.274,11.444-14.533,14.222-12.879C2399.482,1093.773,2399.884,1102.914,2399.039,1105.184Z" transform="translate(-2147.901 -999.752)" fill="#ffb27d"/>
        <g id="그룹_3925" data-name="그룹 3925" transform="translate(232.815 87.39)">
          <path id="패스_2393" data-name="패스 2393" d="M2384.193,1107.828l6.479,4.553a1.02,1.02,0,0,0,1.417-.247l16.6-23.616a1.02,1.02,0,0,0-.248-1.417l-6.479-4.553a1.02,1.02,0,0,0-1.417.247l-16.6,23.615A1.021,1.021,0,0,0,2384.193,1107.828Z" transform="translate(-2383.762 -1082.364)" fill="#2b478b"/>
          <path id="패스_2394" data-name="패스 2394" d="M2395.047,1115.432l3.8,2.67a.776.776,0,0,0,1.078-.188L2416.8,1093.9a.777.777,0,0,0-.188-1.078l-3.8-2.668a.776.776,0,0,0-1.078.188l-16.876,24.014A.775.775,0,0,0,2395.047,1115.432Z" transform="translate(-2388.684 -1085.8)" fill="#233862"/>
        </g>
        <path id="패스_2395" data-name="패스 2395" d="M2201.153,1067.069s32.968,57.5,44.927,68.081l43.854-32.7a16.006,16.006,0,0,1,9.15,8.34s-26.63,54.256-52.851,56.556-63.021-65.032-63.021-65.032Z" transform="translate(-2060.853 -988.103)" fill="#707fe5"/>
        <g id="그룹_3926" data-name="그룹 3926" transform="translate(31.949 211.846)">
          <path id="패스_2396" data-name="패스 2396" d="M2052.8,1745.625h-19.048c-2.4-1.3-4.534-4.283-5.21-8.728-.93-6.137-7.808-9.482-9.3-14.5s6.137-12.081,6.137-12.081l1.274-1.644,1.327-1.705,12.643,2.977s.313,3.012.5,6.847a87.494,87.494,0,0,1,.054,8.77c-.372,6.691,1.872,13.9,7.818,15.2C2053.4,1741.721,2053.208,1744.33,2052.8,1745.625Z" transform="translate(-2019.058 -1487.413)" fill="#162c4f"/>
          <path id="패스_2397" data-name="패스 2397" d="M2244.365,1758.991H2200.8c-2.1-2.557-1.323-11.991-1.005-15.072.065-.62.11-.982.11-.982s14.876-11.9,16.919-2.788c.062.286.138.566.22.841,2.574,8.521,14.121,12.394,20.788,13.473C2242.169,1755.166,2243.773,1757.42,2244.365,1758.991Z" transform="translate(-2100.071 -1500.778)" fill="#162c4f"/>
          <path id="패스_2398" data-name="패스 2398" d="M2214.5,1332.489s-2.259,28.181-4.913,62.057c-3.609,46.016-7.948,102.541-8.377,113.248-.743,18.594-3.72,48.337-3.72,48.337s-7.06,7.067-21.193,4.088c0,0-12.594-42.458-16.19-87.382-.056-.736-.111-1.478-.167-2.22-3.347-45.732-8.55-142.032-8.55-142.032Z" transform="translate(-2078.506 -1317.431)" fill="#f99746"/>
          <path id="패스_2399" data-name="패스 2399" d="M2214.5,1332.489s-2.259,28.181-4.913,62.057l-49.48,78.291c-.056-.736-.111-1.478-.167-2.22-3.347-45.732-8.55-142.032-8.55-142.032Z" transform="translate(-2078.506 -1317.431)" fill="#ed7d2b"/>
          <path id="패스_2400" data-name="패스 2400" d="M2149.9,1326.738s-40.714,102.061-67.484,150.025-35.136,61.348-35.136,61.348-15.337-6.134-16.731-10.317c0,0,10.237-92.6,28.164-115.168,10.13-12.754,22.03-51.03,22.587-64.416s3.625-39.876,3.625-39.876Z" transform="translate(-2024.22 -1308.333)" fill="#f99746"/>
        </g>
        <path id="패스_2401" data-name="패스 2401" d="M2194.459,1037c-15.909,5.021-42.158-9.135-42.158-9.135s13.389-10.4,12.622-33.292l12.3,9.913,8.356,6.733a100.3,100.3,0,0,1-.948,10.927c-.241,1.83-.68,4.685.69,6.149A94.465,94.465,0,0,0,2194.459,1037Z" transform="translate(-2046.966 -955.535)" fill="#ffb27d"/>
        <path id="패스_2402" data-name="패스 2402" d="M2195.832,1019.111a100.255,100.255,0,0,1-.947,10.927c-9.259-1.589-19.761-16.553-19.761-16.553a29.5,29.5,0,0,1,12.353-1.106Z" transform="translate(-2057.219 -963.426)" fill="#ed975d"/>
        <path id="패스_2403" data-name="패스 2403" d="M2195.919,988.652s-26.279,4.366-28.745-12.041-7.52-26.893,9.154-30.375,20.883,2.288,23.038,7.564S2202.692,987.094,2195.919,988.652Z" transform="translate(-2052.44 -933.344)" fill="#ffb27d"/>
        <path id="패스_2404" data-name="패스 2404" d="M2203.79,1207.272a2.575,2.575,0,0,1-1.673.638c-5.974-.082-23.4,3.237-38.137,1.723-12.428-1.193-23.427-4.875-35.239-10.169-1.568-.7-5.179-2.631-5.1-4.384.052-1.919.243-4.7.483-8.211.835-12.192,2.292-33.163.872-57.357-.256-4.505-.39-8.974-.406-13.373-.122-32.79,6.38-61.631,19.445-71.392,1.116-.8,7.967,2.549,14.262,5.653a22.557,22.557,0,0,0,15.874,2.062l6.749,4.87c6.693,6.214,14.022,14.66,17.209,27.486,2.711,10.913,4.3,30.594,5.178,50.989.4,9.241.719,18.564.8,27.407v.317c.077.876.077,1.835.077,2.711C2204.509,1188.948,2204.188,1206.951,2203.79,1207.272Z" transform="translate(-2034.092 -978.021)" fill="#8c9df4"/>
        <path id="패스_2405" data-name="패스 2405" d="M2124.522,1226.62c.836-12.192,2.293-33.163.873-57.357-.255-4.505-.39-8.974-.406-13.373,5.443-13.2,9.891-22.778,9.891-22.778H2148.6S2158.655,1201.809,2124.522,1226.62Z" transform="translate(-2034.487 -1017.772)" fill="#707fe5"/>
        <g id="그룹_3927" data-name="그룹 3927" transform="translate(0 225.918)">
          <path id="패스_2406" data-name="패스 2406" d="M1987.136,1400.873l58.508,8.338a14.026,14.026,0,0,0,15.817-11.872l3.613-25.355a14.026,14.026,0,0,0-11.872-15.817l-58.508-8.338a14.026,14.026,0,0,0-15.817,11.872l-3.613,25.354A14.025,14.025,0,0,0,1987.136,1400.873Z" transform="translate(-1967.372 -1340.085)" fill="#233862"/>
          <path id="패스_2407" data-name="패스 2407" d="M2050.183,1357.523v0a14.087,14.087,0,0,0-9.693-8.466h0a.012.012,0,0,1-.01,0c-.441-.106-.889-.2-1.35-.262l-11.651-1.658.779-5.472a4.634,4.634,0,0,0-3.931-5.237l-3.04-.434-12.232-1.744-2.205-.313a4.636,4.636,0,0,0-5.238,3.931l-.779,5.472-20.109-2.867a14.081,14.081,0,0,0-15.878,11.916l-3.652,25.65a14.075,14.075,0,0,0,11.915,15.875l58.4,8.325a13.672,13.672,0,0,0,3.046.1h.01a13.817,13.817,0,0,0,4.559-1.151,14.064,14.064,0,0,0,8.264-10.864l3.655-25.647A13.917,13.917,0,0,0,2050.183,1357.523Zm-45.7-19.251a1.734,1.734,0,0,1,1.438-1.462,1.765,1.765,0,0,1,.52-.007l2.6.369,9.627,1.376,5.248.747a1.731,1.731,0,0,1,1.468,1.953l-.779,5.472-20.9-2.981Z" transform="translate(-1961.049 -1333.884)" fill="#2b478b"/>
        </g>
        <path id="패스_2408" data-name="패스 2408" d="M2062.828,1302.939a9.5,9.5,0,0,0-2.463,6.7c.706,9.683-.445,14.072-6.674,15.07,0,0-7.39,1.39-7.486-2.955,0,0,3.477.031,2.748-6.053-.839-7.018-.754-7.083,3.852-10.749l3.05-5.041Z" transform="translate(-1999.305 -1092.706)" fill="#ffb27d"/>
        <path id="패스_2409" data-name="패스 2409" d="M2057.988,1194.243a44.975,44.975,0,0,0,10.295.573s14.666-45.3,16.553-49.443,43.562-53.122,43.562-53.122l-17.361-43.448s-45.075,75.293-49.652,85.872c-7.563,17.483-10.188,56.679-10.188,56.679A18.875,18.875,0,0,0,2057.988,1194.243Z" transform="translate(-2001.547 -979.897)" fill="#8c9df4"/>
        <path id="패스_2410" data-name="패스 2410" d="M2164.111,965.381s2.7-.451,2.262-4.166-.43-8.569,2.59-7.664,3.171,3.323,4.412,1.911,1.263-7.361,10.249-7.775,12.638,2.714,16.816.877,4.4-8.162,4.4-8.162a7.188,7.188,0,0,1-2.984,2.977s6.972-9.535-1.1-16.074-16.3-2.258-20.973-1.975c-10.291.622-16.939,1.24-20.3,8S2157.507,958.871,2164.111,965.381Z" transform="translate(-2049.399 -923.693)" fill="#2b478b"/>
        <path id="패스_2411" data-name="패스 2411" d="M2068.7,1316.027s2.958,3.084,3.146,4.367c.6,4.119,1.975,5.9,1.285,6.346-1.433.931-3.329-2.118-4.235-4.854A12.5,12.5,0,0,1,2068.7,1316.027Z" transform="translate(-2009.29 -1099.944)" fill="#ffb27d"/>
      </g>
    </g>
    <path id="패스_2412" data-name="패스 2412" d="M2419.763,1741.67h-39.219c-2.1-1.783,1.454-5.831,5.169-6.1a22.916,22.916,0,0,1,5.987.708c.539-7.168,3.622-39.392,15.237-38.1,13.06,1.45,0,14.191-3.693,21.734a179.5,179.5,0,0,0-6.938,17.381c1.061.23,2.158.456,3.279.662,1.731-5.315,8.172-23.194,16.363-22.152,9.617,1.22,5.751,8.388-1.065,12.643-5,3.129-11.142,7.576-14.059,9.725a41.69,41.69,0,0,0,7.67.615C2415.211,1738.625,2418.491,1740.6,2419.763,1741.67Z" transform="translate(-938.686 -666.006)" fill="#a8d29f"/>
    <g id="그룹_3929" data-name="그룹 3929" transform="translate(489.913 613.543)" opacity="0.3">
      <path id="패스_2413" data-name="패스 2413" d="M652.738,975.22c1.944-31.8,24.253-37.107,44.751-37.1s40.542,10.64,39.567,34.558c-.421,10.321-3.3,19.283-10.14,25.635l7.708,19.286-15.7-13.956c-6.306,2.977-14.539,4.645-25.131,4.641C662.391,1008.274,651.488,995.681,652.738,975.22Z" transform="translate(-652.643 -938.121)" fill="#aec3ff"/>
    </g>
    <g id="그룹_3936" data-name="그룹 3936" transform="translate(780.399 958.96)">
      <g id="그룹_3932" data-name="그룹 3932" transform="translate(0 14.455)">
        <g id="그룹_3930" data-name="그룹 3930" transform="translate(14.038 13.669)">
          <path id="패스_2414" data-name="패스 2414" d="M1225.185,1700.265l-.947-.151c-3.732-48.279-18.475-82.926-18.681-83.4l.862-.372C1206.625,1616.821,1221.475,1651.7,1225.185,1700.265Z" transform="translate(-1205.556 -1616.345)" fill="#a8d29f"/>
        </g>
        <g id="그룹_3931" data-name="그룹 3931">
          <path id="패스_2415" data-name="패스 2415" d="M1186.38,1601.457c1.818,2.06,10.331,5.373,10.919,4.854s-1.643-9.378-3.46-11.438a4.974,4.974,0,0,0-7.459,6.584Z" transform="translate(-1182.344 -1592.274)" fill="#fff"/>
          <path id="패스_2416" data-name="패스 2416" d="M1208.921,1593.529c-1.641,2.2-3.133,11.216-2.5,11.684s8.84-3.536,10.481-5.74a4.974,4.974,0,1,0-7.977-5.945Z" transform="translate(-1191.839 -1591.527)" fill="#fff"/>
          <path id="패스_2417" data-name="패스 2417" d="M1219.242,1612.43c-2.65-.722-11.584,1.186-11.79,1.943s6.524,6.933,9.175,7.656a4.974,4.974,0,1,0,2.615-9.6Z" transform="translate(-1192.368 -1600.846)" fill="#fff"/>
          <path id="패스_2418" data-name="패스 2418" d="M1209.816,1625.825c-.265-2.734-5.216-10.411-6-10.336s-4.17,8.559-3.906,11.293a4.974,4.974,0,1,0,9.9-.957Z" transform="translate(-1188.977 -1602.291)" fill="#fff"/>
          <path id="패스_2419" data-name="패스 2419" d="M1187.356,1625.118c2.433-1.278,7.672-8.761,7.307-9.455s-9.5-.631-11.932.646a4.975,4.975,0,0,0,4.625,8.809Z" transform="translate(-1180.068 -1602.172)" fill="#fff"/>
          <path id="패스_2420" data-name="패스 2420" d="M1203.614,1614.429a1.638,1.638,0,1,1,1.36,1.875A1.638,1.638,0,0,1,1203.614,1614.429Z" transform="translate(-1190.637 -1601.195)" fill="#f78248"/>
        </g>
        <path id="패스_2421" data-name="패스 2421" d="M1229.135,1639c-2.7,3.324-5.621,17.27-4.672,18.041s14.006-4.928,16.71-8.253a7.758,7.758,0,0,0-12.038-9.789Z" transform="translate(-1199.93 -1611.566)" fill="#a8d29f"/>
        <path id="패스_2422" data-name="패스 2422" d="M1214.39,1713.586c2.807,1.369,9.014,9.694,8.623,10.495s-10.772,1.039-13.579-.33a5.654,5.654,0,1,1,4.956-10.165Z" transform="translate(-1191.833 -1646.103)" fill="#a8d29f"/>
      </g>
      <g id="그룹_3935" data-name="그룹 3935" transform="translate(51.099)">
        <g id="그룹_3933" data-name="그룹 3933" transform="translate(9.621 15.693)">
          <path id="패스_2423" data-name="패스 2423" d="M1290.315,1690.125l1.088-.173c4.284-55.43,21.211-95.209,21.448-95.749l-.99-.428C1311.625,1594.323,1294.574,1634.362,1290.315,1690.125Z" transform="translate(-1290.315 -1593.775)" fill="#a8d29f"/>
        </g>
        <g id="그룹_3934" data-name="그룹 3934" transform="translate(13.207)">
          <path id="패스_2424" data-name="패스 2424" d="M1341.768,1576.682c-2.087,2.365-11.862,6.169-12.537,5.573s1.886-10.767,3.974-13.132a5.711,5.711,0,1,1,8.563,7.559Z" transform="translate(-1311.335 -1566.14)" fill="#fff"/>
          <path id="패스_2425" data-name="패스 2425" d="M1316.493,1567.58c1.885,2.529,3.6,12.878,2.875,13.415s-10.148-4.061-12.034-6.589a5.711,5.711,0,0,1,9.159-6.826Z" transform="translate(-1301.039 -1565.282)" fill="#fff"/>
          <path id="패스_2426" data-name="패스 2426" d="M1301.038,1589.282c3.043-.829,13.3,1.361,13.537,2.23s-7.491,7.961-10.534,8.79a5.711,5.711,0,0,1-3-11.02Z" transform="translate(-1296.828 -1575.981)" fill="#fff"/>
          <path id="패스_2427" data-name="패스 2427" d="M1317.033,1604.66c.3-3.139,5.989-11.953,6.885-11.867s4.788,9.827,4.484,12.966a5.711,5.711,0,0,1-11.369-1.1Z" transform="translate(-1305.893 -1577.641)" fill="#fff"/>
          <path id="패스_2428" data-name="패스 2428" d="M1338.444,1603.848c-2.793-1.466-8.809-10.058-8.39-10.855s10.907-.724,13.7.742a5.711,5.711,0,1,1-5.309,10.113Z" transform="translate(-1311.745 -1577.504)" fill="#fff"/>
          <path id="패스_2429" data-name="패스 2429" d="M1330.394,1591.575a1.881,1.881,0,1,0-1.561,2.153A1.881,1.881,0,0,0,1330.394,1591.575Z" transform="translate(-1310.227 -1576.382)" fill="#f78248"/>
        </g>
        <path id="패스_2430" data-name="패스 2430" d="M1284.05,1673.457c2.2,2.7,4.57,14.043,3.8,14.67s-11.389-4.007-13.587-6.71a6.308,6.308,0,0,1,9.789-7.96Z" transform="translate(-1272.847 -1612.832)" fill="#a8d29f"/>
        <path id="패스_2431" data-name="패스 2431" d="M1305.381,1705.42c-3.223,1.571-10.349,11.13-9.9,12.05s12.368,1.192,15.591-.38a6.492,6.492,0,0,0-5.69-11.671Z" transform="translate(-1283.006 -1627.942)" fill="#a8d29f"/>
      </g>
      <path id="패스_2432" data-name="패스 2432" d="M1197.237,1771.32s9.166-9.984,28.887-6.373,30.554-6.975,34.164,6.373Z" transform="translate(-1187.781 -1654.625)" fill="#a8d29f"/>
    </g>
  </g>
</svg>
