<svg xmlns="http://www.w3.org/2000/svg" width="338" height="338" viewBox="0 0 338 338">
  <g id="그룹_4021" data-name="그룹 4021" transform="translate(-968 -2575)">
    <circle id="타원_71" data-name="타원 71" cx="169" cy="169" r="169" transform="translate(968 2575)" fill="#3054c7"/>
    <g id="surface1" transform="translate(1074 2683.154)">
      <path id="패스_2632" data-name="패스 2632" d="M126.606,40.386l0-.116c-.065-1.43-.108-2.943-.134-4.626A15.776,15.776,0,0,0,111.614,20.19C94.5,19.235,81.26,13.654,69.948,2.628l-.1-.092a9.526,9.526,0,0,0-12.946,0l-.1.092C45.5,13.654,32.258,19.235,15.144,20.191A15.775,15.775,0,0,0,.29,35.646C.265,37.317.22,38.83.156,40.27l-.007.269C-.184,57.991-.6,79.71,6.669,99.423a74.957,74.957,0,0,0,17.983,28.011c9.04,8.822,20.88,15.825,35.191,20.815a10.9,10.9,0,0,0,1.442.393,10.652,10.652,0,0,0,4.188,0,10.933,10.933,0,0,0,1.448-.4c14.294-5,26.122-12.006,35.153-20.826A75.062,75.062,0,0,0,120.057,99.4C127.35,79.63,126.938,57.87,126.606,40.386ZM111.862,96.38C104.2,117.158,88.556,131.427,64.038,140a2.193,2.193,0,0,1-.277.075,1.959,1.959,0,0,1-.768,0,2.174,2.174,0,0,1-.275-.074c-24.543-8.558-40.2-22.819-47.854-43.6-6.7-18.171-6.318-38.108-5.983-55.7l0-.1c.068-1.512.114-3.095.139-4.834a7.012,7.012,0,0,1,6.608-6.863,76.633,76.633,0,0,0,26.01-5.721,68.051,68.051,0,0,0,21.2-14.241.805.805,0,0,1,1.081,0,68.076,68.076,0,0,0,21.2,14.241,76.636,76.636,0,0,0,26.012,5.721,7.01,7.01,0,0,1,6.607,6.864c.026,1.749.072,3.332.14,4.833C118.208,58.218,118.578,78.171,111.862,96.38Zm0,0" transform="translate(0 0)" fill="#fff"/>
      <path id="패스_2633" data-name="패스 2633" d="M127.494,128.41a37.1,37.1,0,1,0,37.1,37.1A37.138,37.138,0,0,0,127.494,128.41Zm0,65.457a28.361,28.361,0,1,1,28.36-28.361A28.393,28.393,0,0,1,127.494,193.867Zm0,0" transform="translate(-64.117 -91.079)" fill="#fff"/>
      <path id="패스_2634" data-name="패스 2634" d="M183.034,213.271,165.8,230.5l-4.677-4.677A4.367,4.367,0,0,0,154.951,232l7.765,7.765a4.367,4.367,0,0,0,6.176,0l20.319-20.319a4.367,4.367,0,1,0-6.177-6.176Zm0,0" transform="translate(-108.997 -150.361)" fill="#fff"/>
    </g>
  </g>
</svg>
