<svg xmlns="http://www.w3.org/2000/svg" width="338" height="338" viewBox="0 0 338 338">
  <g id="그룹_4020" data-name="그룹 4020" transform="translate(-614 -2575)">
    <circle id="타원_86" data-name="타원 86" cx="169" cy="169" r="169" transform="translate(614 2575)" fill="#add0ea"/>
    <g id="education" transform="translate(712 2672)">
      <path id="패스_2630" data-name="패스 2630" d="M114.8,24.9l16.756,5.914V54.462a4.19,4.19,0,0,0,4.189,4.189H191.6a4.19,4.19,0,0,0,4.189-4.189V30.811l11.172-3.943V43.29a4.189,4.189,0,0,0,8.379,0V20.947a4.19,4.19,0,0,0-2.8-3.951L165.064.238a4.186,4.186,0,0,0-2.788,0L114.8,17a4.189,4.189,0,0,0,0,7.9ZM187.41,50.273H139.93v-16.5l22.346,7.887a4.19,4.19,0,0,0,2.788,0l22.346-7.887ZM163.67,8.632l34.893,12.315L163.67,33.262,128.777,20.947Z" transform="translate(-80.719 0)" fill="#fff"/>
      <path id="패스_2631" data-name="패스 2631" d="M134.312,272.778a12.622,12.622,0,0,0-14.261,4.345l-15.6,20.4c0-.111.008-.221.008-.333a13.981,13.981,0,0,0-13.965-13.965H62.777a28.472,28.472,0,0,0-31.5-3.59v-.6a4.19,4.19,0,0,0-4.189-4.189H4.189A4.19,4.19,0,0,0,0,279.039V334.9a4.19,4.19,0,0,0,4.189,4.189h22.9a4.19,4.19,0,0,0,4.189-4.189v-4.189H99.95a29.206,29.206,0,0,0,24.669-13.468l16.35-25.433A12.764,12.764,0,0,0,143,284.892,12.623,12.623,0,0,0,134.312,272.778ZM22.9,330.709H8.379v-47.48H22.9Zm111.018-43.432-16.35,25.433a20.862,20.862,0,0,1-17.621,9.62H31.281V289.574l1.4-1a20.081,20.081,0,0,1,25.58,1.865,4.189,4.189,0,0,0,2.9,1.17H90.492a5.586,5.586,0,0,1,0,11.172H60.607a4.189,4.189,0,0,0,0,8.379H94.221a21.071,21.071,0,0,0,16.64-8.223l15.846-20.722a4.411,4.411,0,0,1,7.914,2.679A4.4,4.4,0,0,1,133.921,287.277Z" transform="translate(0 -196.089)" fill="#fff"/>
    </g>
  </g>
</svg>
