<svg xmlns="http://www.w3.org/2000/svg" width="338" height="338" viewBox="0 0 338 338">
  <g id="그룹_4019" data-name="그룹 4019" transform="translate(-260 -2575)">
    <circle id="타원_69" data-name="타원 69" cx="169" cy="169" r="169" transform="translate(260 2575)" fill="#c28df1"/>
    <g id="class" transform="translate(346 2674)">
      <g id="그룹_4015" data-name="그룹 4015" transform="translate(24.437)">
        <g id="그룹_4014" data-name="그룹 4014">
          <path id="패스_2622" data-name="패스 2622" d="M94.549,0A19.813,19.813,0,0,0,75,19.875a19.549,19.549,0,0,0,39.1,0A19.815,19.815,0,0,0,94.549,0Zm0,29.65a9.786,9.786,0,0,1-9.775-9.775,9.78,9.78,0,1,1,19.549,0A9.786,9.786,0,0,1,94.549,29.65Z" transform="translate(-75)" fill="#fff"/>
        </g>
      </g>
      <g id="그룹_4017" data-name="그룹 4017">
        <g id="그룹_4016" data-name="그룹 4016">
          <path id="패스_2623" data-name="패스 2623" d="M152.16,0H83.085A14.679,14.679,0,0,0,68.423,14.662V48.015l-4.3-4.3a14.565,14.565,0,0,0-10.367-4.3H24.437A24.465,24.465,0,0,0,0,63.862V93.186a14.665,14.665,0,0,0,19.549,13.825v45.15a14.655,14.655,0,0,0,24.437,10.92,14.655,14.655,0,0,0,24.437-10.92V87.466a14.718,14.718,0,0,0,11.445-.714l16.456-8.228H152.16a14.679,14.679,0,0,0,14.662-14.662v-49.2A14.679,14.679,0,0,0,152.16,0ZM95.046,68.234,75.5,78.006a4.886,4.886,0,0,1-5.648-.914l-2.863-2.863a4.89,4.89,0,0,0-8.343,3.441s0,.009,0,.014V152.16a4.887,4.887,0,0,1-9.775,0v-49.2a4.887,4.887,0,1,0-9.775,0v49.2a4.887,4.887,0,0,1-9.775,0v-88.3a4.887,4.887,0,0,0-9.775,0V93.186a4.887,4.887,0,0,1-9.775,0c0-3.685,0-26.312,0-29.324A14.679,14.679,0,0,1,24.437,49.2H53.761a4.854,4.854,0,0,1,3.455,1.432L71.783,65.2a4.888,4.888,0,0,0,5.641.916l13.251-6.626a4.888,4.888,0,0,1,4.371,8.745Zm62-4.372a4.893,4.893,0,0,1-4.887,4.887H106.681c.03-.084.062-.166.09-.25a14.606,14.606,0,0,0,.646-6.451l26.727-13.364a4.887,4.887,0,1,0-4.372-8.743L103.047,53.3A14.649,14.649,0,0,0,86.3,50.747L78.2,54.8V14.662a4.893,4.893,0,0,1,4.887-4.887H152.16a4.893,4.893,0,0,1,4.887,4.887Z" fill="#fff"/>
        </g>
      </g>
    </g>
  </g>
</svg>
