<svg xmlns="http://www.w3.org/2000/svg" width="338" height="338" viewBox="0 0 338 338">
  <g id="그룹_4022" data-name="그룹 4022" transform="translate(-1322 -2575)">
    <circle id="타원_72" data-name="타원 72" cx="169" cy="169" r="169" transform="translate(1322 2575)" fill="#ffb421"/>
    <g id="live" transform="translate(1391 2658)">
      <path id="패스_2624" data-name="패스 2624" d="M122.757,77.263h53.748a11.774,11.774,0,0,0,10.912-7.387l13.709,6.855a5.039,5.039,0,0,0,7.292-4.507V31.913a5.039,5.039,0,0,0-7.292-4.507l-13.709,6.855A11.779,11.779,0,0,0,177.308,26.9,15.109,15.109,0,0,0,155.324,8.86a18.469,18.469,0,0,0-32.218,18.014h-.348A11.771,11.771,0,0,0,111,38.632V65.506A11.771,11.771,0,0,0,122.757,77.263Zm75.584-13.192-10.078-5.039V45.1l10.078-5.039ZM163.069,16.8a5.039,5.039,0,1,1-5.039,5.039A5.045,5.045,0,0,1,163.069,16.8Zm-31.913,1.68a8.4,8.4,0,1,1,8.4,8.4A8.408,8.408,0,0,1,131.156,18.476ZM121.078,38.632a1.682,1.682,0,0,1,1.68-1.68h53.748a1.682,1.682,0,0,1,1.68,1.68V65.506a1.682,1.682,0,0,1-1.68,1.68H122.757a1.682,1.682,0,0,1-1.68-1.68Z" transform="translate(-59.767)" fill="#fff"/>
      <path id="패스_2625" data-name="패스 2625" d="M163.769,262H36.117A15.134,15.134,0,0,0,21,277.117v53.748a15.134,15.134,0,0,0,15.117,15.117H163.769a15.134,15.134,0,0,0,15.117-15.117V277.117A15.134,15.134,0,0,0,163.769,262Zm5.039,68.865a5.045,5.045,0,0,1-5.039,5.039H36.117a5.045,5.045,0,0,1-5.039-5.039V277.117a5.045,5.045,0,0,1,5.039-5.039H163.769a5.045,5.045,0,0,1,5.039,5.039Z" transform="translate(0 -173.987)" fill="#fff"/>
      <path id="패스_2626" data-name="패스 2626" d="M108.67,355.564h-.029c-2.279.013-4.681.022-6.7.026V327.039a5.039,5.039,0,1,0-10.078,0V360.6a5.039,5.039,0,0,0,4.187,4.966,29.364,29.364,0,0,0,4.357.1c1.81,0,4.436-.009,8.286-.031a5.039,5.039,0,0,0-.028-10.078Z" transform="translate(-47.061 -213.831)" fill="#fff"/>
      <path id="패스_2627" data-name="패스 2627" d="M181.928,322a5.039,5.039,0,0,0-5.039,5.039v33.593a5.039,5.039,0,1,0,10.078,0V327.039A5.039,5.039,0,0,0,181.928,322Z" transform="translate(-103.522 -213.831)" fill="#fff"/>
      <path id="패스_2628" data-name="패스 2628" d="M367.191,332.078a5.039,5.039,0,0,0,0-10.078H353.036A5.039,5.039,0,0,0,348,327.039v33.593a5.039,5.039,0,0,0,5.039,5.039h14.155a5.039,5.039,0,0,0,0-10.078h-9.116v-6.719h8.072a5.039,5.039,0,1,0,0-10.078h-8.072v-6.719Z" transform="translate(-217.15 -213.831)" fill="#fff"/>
      <path id="패스_2629" data-name="패스 2629" d="M257.4,322.316a5.038,5.038,0,0,0-6.371,3.193l-6.993,21.051-7.351-21.177a5.039,5.039,0,0,0-9.521,3.3l11.485,33.088.012.033a5.8,5.8,0,0,0,5.463,3.858h.038a5.8,5.8,0,0,0,5.45-3.93l.012-.035,10.968-33.017A5.039,5.039,0,0,0,257.4,322.316Z" transform="translate(-136.724 -213.828)" fill="#fff"/>
    </g>
  </g>
</svg>
