<svg id="그룹_3775" data-name="그룹 3775" xmlns="http://www.w3.org/2000/svg" xmlns:xlink="http://www.w3.org/1999/xlink" width="213.419" height="34.745" viewBox="0 0 213.419 34.745">
  <defs>
    <clipPath id="clip-path">
      <rect id="사각형_936" data-name="사각형 936" width="213.419" height="34.745" fill="#333"/>
    </clipPath>
  </defs>
  <path id="패스_1913" data-name="패스 1913" d="M16.826,2.786,3.86,33.522H8.9l2.094-5.039,1.738-4.168,4.9-12.551,4.856,12.551,1.738,4.168,2.094,5.039h5.078L18.43,2.786Z" transform="translate(1.016 0.733)" fill="#333"/>
  <path id="패스_1914" data-name="패스 1914" d="M13.363,3.111h1.19L27.244,33.2h-4.39l-2.012-4.842L19.106,24.2,14.25,11.645l-.293-.756-.293.754-4.9,12.543-1.738,4.17L5.016,33.2H.671Zm-.207-.325L.19,33.522H5.225l2.094-5.038,1.738-4.168,4.9-12.551,4.856,12.551,1.738,4.168,2.094,5.038h5.079L14.759,2.786Z" transform="translate(0.05 0.733)" fill="#333"/>
  <g id="그룹_3105" data-name="그룹 3105" transform="translate(0 0)">
    <g id="그룹_3104" data-name="그룹 3104" clip-path="url(#clip-path)">
      <path id="패스_1915" data-name="패스 1915" d="M40.165,8.96a6.738,6.738,0,0,1,1.028.069q.433.068.8.159v4.247H40.53A8.228,8.228,0,0,0,38,13.823a5.886,5.886,0,0,0-2.1,1.164,5.583,5.583,0,0,0-1.416,1.94,6.569,6.569,0,0,0-.524,2.717V31.607h-4.84V9.188h4.52l0,2.923a7.758,7.758,0,0,1,2.9-2.352,8.487,8.487,0,0,1,3.629-.8" transform="translate(8.571 2.637)" fill="#333"/>
      <path id="패스_1916" data-name="패스 1916" d="M42.343,0h4.841V34.243H42.343Zm20.41,34.243H57l-9.726-12.6,8.766-9.817h5.935l-9.037,9.862Z" transform="translate(12.465 0)" fill="#333"/>
      <path id="패스_1917" data-name="패스 1917" d="M103.053,0V34.243H98.578V31.008a8.407,8.407,0,0,1-3.288,2.745,10.378,10.378,0,0,1-4.565.992,10.823,10.823,0,0,1-4.429-.891,10.206,10.206,0,0,1-3.447-2.466,11.706,11.706,0,0,1-2.26-3.7,12.741,12.741,0,0,1-.822-4.634,12.923,12.923,0,0,1,.822-4.657,11.408,11.408,0,0,1,2.283-3.721,10.46,10.46,0,0,1,3.47-2.466,10.7,10.7,0,0,1,4.383-.889,10.482,10.482,0,0,1,4.269.853A8.49,8.49,0,0,1,98.213,14.6V0ZM91.524,30.316a7.621,7.621,0,0,0,2.452-.408,6,6,0,0,0,2.175-1.293,6.541,6.541,0,0,0,1.558-2.269,8.3,8.3,0,0,0,.6-3.289,8.138,8.138,0,0,0-.6-3.267,6.833,6.833,0,0,0-1.558-2.269,6.115,6.115,0,0,0-2.175-1.338,7.282,7.282,0,0,0-2.452-.431,7.037,7.037,0,0,0-2.725.522,6.6,6.6,0,0,0-2.2,1.476,6.714,6.714,0,0,0-1.467,2.291,8.642,8.642,0,0,0,0,5.943,6.907,6.907,0,0,0,1.443,2.292,6.567,6.567,0,0,0,2.2,1.5,6.975,6.975,0,0,0,2.749.544" transform="translate(23.482 0)" fill="#333"/>
      <path id="패스_1918" data-name="패스 1918" d="M105.736.212a3.233,3.233,0,0,1,2.305.936,3.008,3.008,0,0,1,.982,2.26,2.935,2.935,0,0,1-.982,2.237,3.4,3.4,0,0,1-4.634,0,2.968,2.968,0,0,1-.959-2.237,3.042,3.042,0,0,1,.959-2.26,3.209,3.209,0,0,1,2.329-.936m2.42,33.968h-4.84V11.763h4.84Z" transform="translate(30.159 0.062)" fill="#333"/>
      <path id="패스_1919" data-name="패스 1919" d="M119.829,8.748a10.455,10.455,0,0,1,4.4.889,9.509,9.509,0,0,1,3.356,2.581l-2.6,2.968a7.018,7.018,0,0,0-5.249-2.283,4.179,4.179,0,0,0-2.193.524,1.763,1.763,0,0,0-.867,1.622,1.752,1.752,0,0,0,.708,1.46,10.331,10.331,0,0,0,2.259,1.188l2.147.866a13.765,13.765,0,0,1,4.589,2.764,5.4,5.4,0,0,1,1.529,3.994,6.162,6.162,0,0,1-2.464,5.114,7.985,7.985,0,0,1-2.648,1.3,11.528,11.528,0,0,1-3.2.434,11.036,11.036,0,0,1-9.039-4.337l2.739-3.013a12.55,12.55,0,0,0,2.853,2.305,6.722,6.722,0,0,0,3.447.891,4.991,4.991,0,0,0,2.534-.616,2.041,2.041,0,0,0,1.073-1.895,1.805,1.805,0,0,0-.891-1.644,18.2,18.2,0,0,0-2.259-1.142l-2.283-.958a19.181,19.181,0,0,1-2.444-1.165A8.268,8.268,0,0,1,113.5,19.2a5.736,5.736,0,0,1-1.164-1.736,5.658,5.658,0,0,1-.412-2.237,5.9,5.9,0,0,1,2.283-4.794,7.5,7.5,0,0,1,2.512-1.256,10.863,10.863,0,0,1,3.1-.434" transform="translate(32.547 2.575)" fill="#333"/>
      <path id="패스_1920" data-name="패스 1920" d="M138.963,8.749a11.825,11.825,0,0,1,4.635.913,12.12,12.12,0,0,1,3.79,2.489,11.693,11.693,0,0,1,2.556,3.7,11.271,11.271,0,0,1,.936,4.589,11.431,11.431,0,0,1-.936,4.612,11.867,11.867,0,0,1-2.556,3.743,11.623,11.623,0,0,1-3.79,2.489,12.1,12.1,0,0,1-4.635.891,11.66,11.66,0,0,1-4.611-.914,12.2,12.2,0,0,1-3.767-2.488,11.264,11.264,0,0,1-2.533-3.721,11.638,11.638,0,0,1-.914-4.612,11.515,11.515,0,0,1,3.424-8.285,11.934,11.934,0,0,1,8.4-3.4m.023,4.428a6.951,6.951,0,0,0-2.817.57,6.624,6.624,0,0,0-2.222,1.547,7.213,7.213,0,0,0-1.442,2.322,7.843,7.843,0,0,0-.527,2.889,7.668,7.668,0,0,0,.527,2.867,7.259,7.259,0,0,0,1.442,2.3,6.435,6.435,0,0,0,2.2,1.526,7.435,7.435,0,0,0,5.588,0,6.685,6.685,0,0,0,2.221-1.526,7.077,7.077,0,0,0,1.467-2.3,7.694,7.694,0,0,0,.527-2.867,7.869,7.869,0,0,0-.527-2.889,7.284,7.284,0,0,0-1.467-2.344,6.5,6.5,0,0,0-2.221-1.548,6.949,6.949,0,0,0-2.749-.546" transform="translate(37.427 2.575)" fill="#333"/>
      <path id="패스_1921" data-name="패스 1921" d="M160.942,8.748a9.071,9.071,0,0,1,3.539.661,7.516,7.516,0,0,1,2.648,1.826,7.914,7.914,0,0,1,1.645,2.809,10.923,10.923,0,0,1,.571,3.606V31.668h-4.84V18.29a5.357,5.357,0,0,0-1.319-3.767,4.568,4.568,0,0,0-3.544-1.438,4.944,4.944,0,0,0-3.659,1.438,5.109,5.109,0,0,0-1.432,3.767V31.668h-4.84V9.25h4.52l0,2.237a8.455,8.455,0,0,1,2.876-2.009,9.589,9.589,0,0,1,3.837-.73" transform="translate(44.073 2.575)" fill="#333"/>
      <rect id="사각형_933" data-name="사각형 933" width="19.816" height="4.337" transform="translate(79.462 4.11)" fill="#333"/>
      <rect id="사각형_934" data-name="사각형 934" width="19.816" height="4.337" transform="translate(79.462 16.29)" fill="#333"/>
      <rect id="사각형_935" data-name="사각형 935" width="19.816" height="4.337" transform="translate(79.462 30.316)" fill="#333"/>
    </g>
  </g>
</svg>
