<svg xmlns="http://www.w3.org/2000/svg" width="692" height="462.552" viewBox="0 0 692 462.552">
  <g id="그룹_4023" data-name="그룹 4023" transform="translate(-968 -3260.448)">
    <ellipse id="타원_91" data-name="타원 91" cx="346" cy="12.5" rx="346" ry="12.5" transform="translate(968 3698)" fill="#f1e0ff"/>
    <g id="그룹_3983" data-name="그룹 3983" transform="translate(380.516 2996.633)">
      <g id="그룹_3950" data-name="그룹 3950" transform="translate(765.167 631.298)">
        <g id="그룹_3948" data-name="그룹 3948" transform="translate(7.893)">
          <path id="패스_2433" data-name="패스 2433" d="M1160.981,1564.7l-1.4-.767a3.094,3.094,0,0,1-1.227-4.2l6.434-11.75a3.1,3.1,0,0,1,4.2-1.227l2.005,1.1a.6.6,0,1,1-.581,1.061l-2.006-1.1a1.883,1.883,0,0,0-2.553.747l-6.434,11.75a1.884,1.884,0,0,0,.747,2.553l1.4.767a1.883,1.883,0,0,0,2.553-.746l4.271-7.8a.6.6,0,0,1,1.061.581l-4.271,7.8A3.094,3.094,0,0,1,1160.981,1564.7Z" transform="translate(-1157.975 -1546.386)" fill="#afcdfb"/>
        </g>
        <g id="그룹_3949" data-name="그룹 3949" transform="translate(0 1.403)">
          <path id="패스_2434" data-name="패스 2434" d="M1135.356,1580.537l-2.51-1.375a5.006,5.006,0,0,1-1.747-6.844l9.673-17.665a.6.6,0,1,1,1.061.581l-9.673,17.665a3.8,3.8,0,0,0,1.267,5.2l2.51,1.375a3.8,3.8,0,0,0,5.065-1.734l11.018-20.122a3.8,3.8,0,0,0-1.267-5.2.6.6,0,0,1,.581-1.061,5.006,5.006,0,0,1,1.747,6.844l-11.018,20.122A5.006,5.006,0,0,1,1135.356,1580.537Z" transform="translate(-1130.426 -1551.283)" fill="#afcdfb"/>
        </g>
      </g>
      <g id="그룹_3959" data-name="그룹 3959" transform="translate(690.067 298.198)">
        <path id="사각형_1544" data-name="사각형 1544" d="M47.874,0H287.71a47.875,47.875,0,0,1,47.875,47.875v190.32a47.874,47.874,0,0,1-47.874,47.874H47.874A47.874,47.874,0,0,1,0,238.195V47.874A47.874,47.874,0,0,1,47.874,0Z" fill="#fff" opacity="0.6"/>
        <path id="사각형_1545" data-name="사각형 1545" d="M31.743,0h272.1a31.743,31.743,0,0,1,31.743,31.743v0a0,0,0,0,1,0,0H0a0,0,0,0,1,0,0v0A31.743,31.743,0,0,1,31.743,0Z" fill="#699dee"/>
        <g id="그룹_3951" data-name="그룹 3951" transform="translate(13.571 11.886)">
          <path id="패스_2435" data-name="패스 2435" d="M915.682,429.095a3.795,3.795,0,1,1,3.795,3.8A3.795,3.795,0,0,1,915.682,429.095Z" transform="translate(-915.682 -425.3)" fill="#dde7fe"/>
          <path id="패스_2436" data-name="패스 2436" d="M971.275,429.095a3.8,3.8,0,1,1,3.8,3.8A3.8,3.8,0,0,1,971.275,429.095Z" transform="translate(-955.346 -425.3)" fill="#dde7fe"/>
          <path id="패스_2437" data-name="패스 2437" d="M1026.869,429.095a3.8,3.8,0,1,1,3.8,3.8A3.795,3.795,0,0,1,1026.869,429.095Z" transform="translate(-995.012 -425.3)" fill="#dde7fe"/>
        </g>
        <rect id="사각형_1546" data-name="사각형 1546" width="95.127" height="95.127" transform="translate(26.595 56.931)" fill="#cde0fb" opacity="0.5"/>
        <path id="패스_2438" data-name="패스 2438" d="M1450.134,589.358h-75.666a3.6,3.6,0,0,1-3.6-3.6h0a3.6,3.6,0,0,1,3.6-3.6h75.666a3.6,3.6,0,0,1,3.595,3.6h0A3.6,3.6,0,0,1,1450.134,589.358Z" transform="translate(-1226.881 -525.337)" fill="#7c9af2" opacity="0.5"/>
        <path id="패스_2439" data-name="패스 2439" d="M1765.933,572.529h-75.666a3.6,3.6,0,0,1-3.6-3.6h0a3.6,3.6,0,0,1,3.6-3.595h75.666a3.6,3.6,0,0,1,3.595,3.595h0A3.6,3.6,0,0,1,1765.933,572.529Z" transform="translate(-1452.197 -513.329)" fill="#7c9af2" opacity="0.5"/>
        <g id="그룹_3952" data-name="그룹 3952" transform="translate(143.992 87.037)" opacity="0.3">
          <path id="패스_2440" data-name="패스 2440" d="M1465.112,692.249H1373.2a2.33,2.33,0,0,1-2.33-2.33h0a2.33,2.33,0,0,1,2.33-2.33h91.909a2.33,2.33,0,0,1,2.33,2.33h0A2.33,2.33,0,0,1,1465.112,692.249Z" transform="translate(-1370.873 -687.589)" fill="#bdd1f9"/>
          <path id="패스_2441" data-name="패스 2441" d="M1755.509,692.249h-24.262a2.33,2.33,0,0,1-2.33-2.33h0a2.33,2.33,0,0,1,2.33-2.33h24.262a2.33,2.33,0,0,1,2.33,2.33h0A2.33,2.33,0,0,1,1755.509,692.249Z" transform="translate(-1626.33 -687.589)" fill="#bdd1f9"/>
          <path id="패스_2442" data-name="패스 2442" d="M1407.881,742.687H1373.2a2.33,2.33,0,0,1-2.33-2.33h0a2.33,2.33,0,0,1,2.33-2.33h34.678a2.33,2.33,0,0,1,2.33,2.33h0A2.33,2.33,0,0,1,1407.881,742.687Z" transform="translate(-1370.873 -723.575)" fill="#bdd1f9"/>
          <path id="패스_2443" data-name="패스 2443" d="M1571.945,742.687h-47.518a2.33,2.33,0,0,1-2.33-2.33h0a2.33,2.33,0,0,1,2.33-2.33h47.518a2.33,2.33,0,0,1,2.33,2.33h0A2.33,2.33,0,0,1,1571.945,742.687Z" transform="translate(-1478.768 -723.575)" fill="#bdd1f9"/>
          <path id="패스_2444" data-name="패스 2444" d="M1755.509,742.687h-24.262a2.33,2.33,0,0,1-2.33-2.33h0a2.33,2.33,0,0,1,2.33-2.33h24.262a2.33,2.33,0,0,1,2.33,2.33h0A2.33,2.33,0,0,1,1755.509,742.687Z" transform="translate(-1626.33 -723.575)" fill="#bdd1f9"/>
          <path id="패스_2445" data-name="패스 2445" d="M1420.258,786.3H1373.2a2.33,2.33,0,0,1-2.33-2.33h0a2.33,2.33,0,0,1,2.33-2.33h47.055a2.33,2.33,0,0,1,2.33,2.33h0A2.33,2.33,0,0,1,1420.258,786.3Z" transform="translate(-1370.873 -754.692)" fill="#bdd1f9"/>
          <path id="패스_2446" data-name="패스 2446" d="M1659.4,786.3h-76.958a2.33,2.33,0,0,1-2.33-2.33h0a2.33,2.33,0,0,1,2.33-2.33H1659.4a2.33,2.33,0,0,1,2.33,2.33h0A2.33,2.33,0,0,1,1659.4,786.3Z" transform="translate(-1520.161 -754.692)" fill="#bdd1f9"/>
        </g>
        <g id="그룹_3953" data-name="그룹 3953" transform="translate(143.992 132.946)" opacity="0.3">
          <path id="패스_2447" data-name="패스 2447" d="M1465.112,852.48H1373.2a2.33,2.33,0,0,1-2.33-2.33h0a2.33,2.33,0,0,1,2.33-2.33h91.909a2.33,2.33,0,0,1,2.33,2.33h0A2.33,2.33,0,0,1,1465.112,852.48Z" transform="translate(-1370.873 -847.82)" fill="#bdd1f9"/>
          <path id="패스_2448" data-name="패스 2448" d="M1755.509,852.48h-24.262a2.33,2.33,0,0,1-2.33-2.33h0a2.33,2.33,0,0,1,2.33-2.33h24.262a2.33,2.33,0,0,1,2.33,2.33h0A2.33,2.33,0,0,1,1755.509,852.48Z" transform="translate(-1626.33 -847.82)" fill="#bdd1f9"/>
          <path id="패스_2449" data-name="패스 2449" d="M1407.881,902.918H1373.2a2.33,2.33,0,0,1-2.33-2.33h0a2.33,2.33,0,0,1,2.33-2.33h34.678a2.33,2.33,0,0,1,2.33,2.33h0A2.33,2.33,0,0,1,1407.881,902.918Z" transform="translate(-1370.873 -883.806)" fill="#bdd1f9"/>
          <path id="패스_2450" data-name="패스 2450" d="M1571.945,902.918h-47.518a2.33,2.33,0,0,1-2.33-2.33h0a2.33,2.33,0,0,1,2.33-2.33h47.518a2.33,2.33,0,0,1,2.33,2.33h0A2.33,2.33,0,0,1,1571.945,902.918Z" transform="translate(-1478.768 -883.806)" fill="#bdd1f9"/>
        </g>
        <g id="그룹_3954" data-name="그룹 3954" transform="translate(42.704 71.111)">
          <path id="패스_2451" data-name="패스 2451" d="M1043.9,632.006h9.824l26.542,60.754h-11.2l-6.119-14.563h-28.524l-6.2,14.563h-10.858Zm15.167,36.8-10.427-24.129L1038.3,668.8Z" transform="translate(-1017.361 -632.006)" fill="#bdd1f9"/>
        </g>
        <g id="그룹_3955" data-name="그룹 3955" transform="translate(26.595 171.22)">
          <rect id="사각형_1547" data-name="사각형 1547" width="53.139" height="10.259" fill="#f99746"/>
          <rect id="사각형_1548" data-name="사각형 1548" width="53.139" height="10.259" transform="translate(0 10.259)" fill="#ed7d2b"/>
          <rect id="사각형_1549" data-name="사각형 1549" width="53.139" height="10.258" transform="translate(0 20.518)" fill="#474fea"/>
        </g>
        <g id="그룹_3956" data-name="그룹 3956" transform="translate(87.434 172.597)">
          <path id="패스_2452" data-name="패스 2452" d="M1204.927,990.639h-29.238a2.215,2.215,0,0,1-2.215-2.215h0a2.215,2.215,0,0,1,2.215-2.215h29.238a2.215,2.215,0,0,1,2.215,2.215h0A2.215,2.215,0,0,1,1204.927,990.639Z" transform="translate(-1173.474 -986.208)" fill="#bdd1f9"/>
          <path id="패스_2453" data-name="패스 2453" d="M1195.077,1017.892h-19.388a2.215,2.215,0,0,1-2.215-2.215h0a2.215,2.215,0,0,1,2.215-2.215h19.388a2.215,2.215,0,0,1,2.215,2.215h0A2.216,2.216,0,0,1,1195.077,1017.892Z" transform="translate(-1173.474 -1005.653)" fill="#bdd1f9"/>
        </g>
        <g id="그룹_3957" data-name="그룹 3957" transform="translate(26.595 224.261)">
          <rect id="사각형_1550" data-name="사각형 1550" width="53.139" height="20.962" fill="#f99746"/>
          <rect id="사각형_1551" data-name="사각형 1551" width="53.139" height="14.991" transform="translate(0 15.785)" fill="#b5453c"/>
          <path id="패스_2454" data-name="패스 2454" d="M961.137,1166.523l19.063,16.013L961.137,1197.3Z" transform="translate(-961.137 -1166.523)" fill="#474fea"/>
        </g>
        <g id="그룹_3958" data-name="그룹 3958" transform="translate(87.434 225.639)">
          <path id="패스_2455" data-name="패스 2455" d="M1204.927,1175.761h-29.238a2.215,2.215,0,0,1-2.215-2.215h0a2.215,2.215,0,0,1,2.215-2.215h29.238a2.215,2.215,0,0,1,2.215,2.215h0A2.215,2.215,0,0,1,1204.927,1175.761Z" transform="translate(-1173.474 -1171.331)" fill="#bdd1f9"/>
          <path id="패스_2456" data-name="패스 2456" d="M1195.077,1203.016h-19.388a2.215,2.215,0,0,1-2.215-2.215h0a2.215,2.215,0,0,1,2.215-2.215h19.388a2.215,2.215,0,0,1,2.215,2.215h0A2.215,2.215,0,0,1,1195.077,1203.016Z" transform="translate(-1173.474 -1190.776)" fill="#bdd1f9"/>
        </g>
      </g>
      <g id="그룹_3961" data-name="그룹 3961" transform="translate(927.423 263.815)">
        <path id="패스_2457" data-name="패스 2457" d="M1862.876,398.38s1.383,16.494-2.375,16.245-11.178-7.511-26.151-6.33-33.293,4.457-44.367-15.139,14.163-25.237,14.163-25.237l58.73,30.462Z" transform="translate(-1761.259 -338.09)" fill="#233862"/>
        <path id="패스_2458" data-name="패스 2458" d="M1766.513,322.9l75.448,6.2,1.569-3.357L1771.2,272.351l-73.067-8.536-1.4,3,69.787,56.078Z" transform="translate(-1696.726 -263.815)" fill="#2b478b"/>
        <g id="그룹_3960" data-name="그룹 3960" transform="translate(113.38 113.781)">
          <path id="패스_2459" data-name="패스 2459" d="M2105.209,663.049a2.925,2.925,0,1,0-2.008,3.617,2.926,2.926,0,0,0,2.008-3.617Z" transform="translate(-2097.456 -660.928)" fill="#861ce4"/>
          <path id="패스_2460" data-name="패스 2460" d="M2097.675,671.161c3.027-.236,3.734,27.3,3.734,27.3s-1.973.928-2.943.71-1.465-3.936-1.465-3.936l-.094,3.9s-3.319.115-4.469-.692c0,0,.45-26.905,5.237-27.278Z" transform="translate(-2092.438 -668.228)" fill="#861ce4"/>
        </g>
        <path id="패스_2461" data-name="패스 2461" d="M2010.168,450.208l-.547-60.157-.391-.292-39.409-29.153-1.415,1.916,39.017,28.862.881,58.72Z" transform="translate(-1890.564 -332.874)" fill="#861ce4"/>
      </g>
      <g id="그룹_3972" data-name="그룹 3972" transform="translate(881.653 530.153)">
        <g id="그룹_3963" data-name="그룹 3963" transform="translate(41.627 71.834)">
          <g id="그룹_3962" data-name="그룹 3962">
            <path id="사각형_1552" data-name="사각형 1552" d="M0,0H159.5a31.134,31.134,0,0,1,31.134,31.134v0a31.84,31.84,0,0,1-31.84,31.84H0a0,0,0,0,1,0,0V0A0,0,0,0,1,0,0Z" transform="translate(8.844 0.001)" fill="#fcecdb"/>
            <path id="패스_2462" data-name="패스 2462" d="M2023.933,1470v9.474a28.9,28.9,0,0,1-3.5,13.878,25.507,25.507,0,0,1-22.283,13.711H1686.007a3.876,3.876,0,0,1-3.739-4v-1.419a3.876,3.876,0,0,1,3.739-4H1876.29a26.071,26.071,0,0,0,2.67-4.3,27.048,27.048,0,0,0,2.789-12.04v-12.043a26.794,26.794,0,0,0-.77-6.409,25.852,25.852,0,0,0-4.412-9.351h-190.56a3.876,3.876,0,0,1-3.739-4v-1.415a3.877,3.877,0,0,1,3.739-4h313.719c11.055,0,20.38,7.933,23.274,18.771A27.555,27.555,0,0,1,2023.933,1470Z" transform="translate(-1682.268 -1444.086)" fill="#699dee"/>
            <path id="패스_2463" data-name="패스 2463" d="M2023,1462.857H1880.979a25.852,25.852,0,0,0-4.412-9.351h-190.56a3.876,3.876,0,0,1-3.739-4v-1.415a3.877,3.877,0,0,1,3.739-4h313.719C2010.781,1444.086,2020.106,1452.019,2023,1462.857Z" transform="translate(-1682.268 -1444.086)" fill="#548ee2"/>
          </g>
          <path id="패스_2464" data-name="패스 2464" d="M1713.136,1553.983l23.112,1.058-23.112.638Z" transform="translate(-1704.292 -1522.496)" fill="#f4d2b8"/>
          <path id="패스_2465" data-name="패스 2465" d="M1713.136,1588.469l54.986,1.058-54.986.638Z" transform="translate(-1704.292 -1547.1)" fill="#f4d2b8"/>
        </g>
        <g id="그룹_3967" data-name="그룹 3967" transform="translate(2.746 134.676)">
          <g id="그룹_3965" data-name="그룹 3965" transform="translate(0 0)">
            <g id="그룹_3964" data-name="그룹 3964">
              <path id="사각형_1553" data-name="사각형 1553" d="M0,0H160.952a25.261,25.261,0,0,1,25.261,25.261v0a23.722,23.722,0,0,1-23.722,23.722H0a0,0,0,0,1,0,0V0A0,0,0,0,1,0,0Z" transform="translate(186.213 48.983) rotate(180)" fill="#f99746"/>
              <path id="사각형_1554" data-name="사각형 1554" d="M0,0H183.625a24.766,24.766,0,0,1,24.766,24.766v0a24.217,24.217,0,0,1-24.217,24.217H0a0,0,0,0,1,0,0V0A0,0,0,0,1,0,0Z" transform="translate(363.814 48.983) rotate(180)" fill="#fcecdb"/>
              <rect id="사각형_1555" data-name="사각형 1555" width="233.717" height="7.326" rx="3.663" transform="translate(373.48 48.983) rotate(180)" fill="#f99746"/>
              <rect id="사각형_1556" data-name="사각형 1556" width="233.717" height="7.326" rx="3.663" transform="translate(373.48 7.326) rotate(180)" fill="#f99746"/>
            </g>
            <path id="패스_2466" data-name="패스 2466" d="M2753.419,1748.9l-25.265.823,25.265.5Z" transform="translate(-2389.606 -1724.404)" fill="#f4d2b8"/>
            <path id="패스_2467" data-name="패스 2467" d="M2666.658,1709.552l-60.107.823,60.107.5Z" transform="translate(-2302.844 -1696.333)" fill="#f4d2b8"/>
          </g>
          <g id="그룹_3966" data-name="그룹 3966" transform="translate(304.326 13.878)">
            <path id="패스_2468" data-name="패스 2468" d="M2608.711,1711.853a11.37,11.37,0,0,1,3.428,5.564,9.1,9.1,0,0,1,.267,1.935c.142,4.6,0,15,0,15l7.6-5.2,7.585,5.2v-14.1a12.414,12.414,0,0,0-1.859-6.957,2.831,2.831,0,0,0-2.1-1.442Z" transform="translate(-2608.711 -1711.853)" fill="#699dee"/>
            <path id="패스_2469" data-name="패스 2469" d="M2608.711,1711.853a11.37,11.37,0,0,1,3.428,5.564l15.24.206s-.6-4.953-3.743-5.77Z" transform="translate(-2608.711 -1711.853)" fill="#568cdb"/>
          </g>
        </g>
        <g id="그룹_3971" data-name="그룹 3971">
          <g id="그룹_3969" data-name="그룹 3969">
            <g id="그룹_3968" data-name="그룹 3968">
              <path id="사각형_1557" data-name="사각형 1557" d="M0,0H150.876a35.58,35.58,0,0,1,35.58,35.58v0A36.387,36.387,0,0,1,150.07,71.967H0a0,0,0,0,1,0,0V0A0,0,0,0,1,0,0Z" transform="translate(8.649)" fill="#fcecdb"/>
              <path id="패스_2470" data-name="패스 2470" d="M1732.18,1221.3v15.489c-.039,6.615-3.106,12.354-7.611,15.423a13.3,13.3,0,0,1-7.505,2.367H1540.725c-2.066,0-3.742,2-3.742,4.469v1.827c0,2.468,1.676,4.469,3.742,4.469h304.628c8.742,0,16.465-5.19,21.131-13.133a34.9,34.9,0,0,0,4.669-17.681v-12.221a33.5,33.5,0,0,0-2.406-12.582c-3.917-9.677-12.214-16.349-21.819-16.349h-306.2c-2.066,0-3.742,2-3.742,4.465v1.827c0,2.468,1.676,4.469,3.742,4.469H1717.6a13.647,13.647,0,0,1,10.726,5.588A19.037,19.037,0,0,1,1732.18,1221.3Z" transform="translate(-1536.983 -1193.379)" fill="#afcdfb"/>
              <path id="패스_2471" data-name="패스 2471" d="M1536.983,1405.555v1.828c0,2.468,1.676,4.469,3.742,4.469h304.628c8.742,0,16.465-5.19,21.131-13.133H1724.569a13.3,13.3,0,0,1-7.505,2.367H1540.725C1538.659,1401.086,1536.983,1403.087,1536.983,1405.555Z" transform="translate(-1536.983 -1339.884)" fill="#a4c4f4"/>
            </g>
            <path id="패스_2472" data-name="패스 2472" d="M1567.17,1318.963l22.605,1.21-22.605.729Z" transform="translate(-1558.521 -1282.979)" fill="#f4d2b8"/>
            <path id="패스_2473" data-name="패스 2473" d="M1567.17,1261.158l53.78,1.21-53.78.729Z" transform="translate(-1558.521 -1241.737)" fill="#f4d2b8"/>
          </g>
          <g id="그룹_3970" data-name="그룹 3970" transform="translate(35.852 20.391)">
            <path id="패스_2474" data-name="패스 2474" d="M1688.136,1264.541a12.619,12.619,0,0,0-4.725,6.033,7.922,7.922,0,0,0-.368,2.1c-.2,4.984,0,16.263,0,16.263l-10.479-5.64-10.452,5.64v-15.287a11.4,11.4,0,0,1,2.562-7.544,4.058,4.058,0,0,1,2.895-1.563Z" transform="translate(-1662.113 -1264.541)" fill="#f99746"/>
            <path id="패스_2475" data-name="패스 2475" d="M1688.882,1264.541a12.619,12.619,0,0,0-4.725,6.033l-21,.223s.824-5.371,5.158-6.257Z" transform="translate(-1662.859 -1264.541)" fill="#ed7d2b"/>
          </g>
        </g>
      </g>
      <g id="girl_2" data-name="girl 2" transform="translate(618.485 542.542)">
        <path id="패스_2476" data-name="패스 2476" d="M801.837,1422.333s32.826,14.3,38.785,14.042,42.675-11.183,42.675-11.183l-.935,6.316s-28.335,16.3-38.242,17.221c-9.753.91-43.1-8.753-46.321-10.794S792.481,1424.4,801.837,1422.333Z" transform="translate(-744.477 -1369.121)" fill="#ed985f"/>
        <path id="패스_2477" data-name="패스 2477" d="M670.913,1237.215s-12.11-2.3-18.141,2.1c-10.925,7.978-11.512,35.484-15.607,39.582s-13.965,2.349-14.844,23.551,3.93,22.974-1.8,32.438,2.423,18.937,2.423,18.937-3.338-5.224-1.907-9c0,0,1.389,8.322,6.677,10.273s6.069,3.381,6.914,6.242c0,0,45.106-23.113,45.155-39.506s8.876-32.633,4.542-39.737a15.718,15.718,0,0,1,2.167,6.42,8.453,8.453,0,0,0-1.907-9.623c-4.508-4.639,5.288-14.24,3.838-25.358C687.429,1245.91,682.073,1237.548,670.913,1237.215Z" transform="translate(-618.485 -1236.615)" fill="#233862"/>
        <path id="패스_2478" data-name="패스 2478" d="M740.433,1391.106a31.568,31.568,0,0,1-11.036,4.7c-17.011,3.93-23.53-10.447-25.978-20.316a14.619,14.619,0,0,1,5.763-1.77c1.229-.145,2.523-.242,3.593-.295,1.91-1.463,4.757-7.451,5.386-16.748l.8.214,13.407,3.669s-.614,4.262-.915,8.29c-.233,3.152-.269,6.164.328,6.9,1.046.227,1.674.375,1.674.375a.037.037,0,0,0,.007.013A86.29,86.29,0,0,1,740.433,1391.106Z" transform="translate(-679.084 -1322.275)" fill="#ffb27d"/>
        <path id="패스_2479" data-name="패스 2479" d="M771.072,1361.1s-.616,4.258-.915,8.29c-7.6-.76-11.12-7.992-12.492-11.958Z" transform="translate(-717.787 -1322.817)" fill="#ed985f"/>
        <path id="패스_2480" data-name="패스 2480" d="M769.39,1307.119s-18.028-.995-17.236-12.212-1-18.9,10.543-18.74,13.476,4.6,14.122,8.408S774.1,1307.088,769.39,1307.119Z" transform="translate(-713.837 -1264.833)" fill="#ffb27d"/>
        <path id="패스_2481" data-name="패스 2481" d="M762.7,1272.543c-2.542-3.573-4.7-2.984-5.949-2.054a12.619,12.619,0,0,0-16.37,1.428,21.48,21.48,0,0,1-7.916,12.156s3.137,2.263,10.843.86a12.892,12.892,0,0,0,6.432-3.789,42.124,42.124,0,0,1-7.864,8.312c9.338-3.53,13.869-15.839,14.326-17.143,1.029,1.066,3.041,3.366,3.551,5.515.693,2.921,3.682,7.487,5.409,7.41C765.165,1285.237,766.515,1277.9,762.7,1272.543Z" transform="translate(-699.81 -1259.077)" fill="#233862"/>
        <path id="패스_2482" data-name="패스 2482" d="M660.674,1464.763c-1.628-8.323-6.936-41.574-1.628-52.274,1.906-3.844,9.387-4.191,17.595-3.853,2.554,1.649,12.286,7.88,16.283,7.1.043-.008.121-.027.224-.053,1.883-.471,2.593-1.793,1.023-2.933a35.855,35.855,0,0,1,9.113.558c2.851.537,10.542,4.516,10.542,4.516s-3.873,7-9.584,9.412c.971,8.687-.473,12.519-9.485,32.583-7.615,16.96,1.027,32.229,1.027,32.229s-44.828,36.042-45.077,17.691C650.521,1495.926,662.755,1475.4,660.674,1464.763Z" transform="translate(-641.474 -1359.278)" fill="#f9ddbf"/>
        <path id="패스_2483" data-name="패스 2483" d="M747.327,1591.266a8.334,8.334,0,0,0,6-3.65q.325-.486.693-1.044c5.1-7.724,7.088-31.381,18.565-56.583,2.8-6.135,12.831-7.239,15.567-14.175,0,0,6.735-22.481-12.891-23.144s-52.561,62.551-53.081,69.181C721.673,1568.274,709.2,1595.568,747.327,1591.266Z" transform="translate(-690.794 -1419.302)" fill="#dd6d22"/>
        <path id="패스_2484" data-name="패스 2484" d="M1017.746,1798.9H989.813s-1.044-4.455.79-7.487c1.623-2.682,1-4.211-.2-6.43a10.855,10.855,0,0,0,4.7.886,9.841,9.841,0,0,0,4.154-1.461c1.2,1.371,6.35,7.205,7.959,8.361C1009.044,1794.085,1017.184,1793.617,1017.746,1798.9Z" transform="translate(-883.208 -1627.457)" fill="#233862"/>
        <path id="패스_2485" data-name="패스 2485" d="M900.227,1496.959c1.682,12.61,8.25,52.411,19.837,71.829,3.735,6.26-9.412,9.77-9.482,9.751-1.764-.461-4.7-3.273-6.055-4.493-9.407-8.478-28.5-32.484-28.5-51.73,0-9.384-.165-27.307,6.659-31.862C886.886,1487.65,899.559,1491.95,900.227,1496.959Z" transform="translate(-802.234 -1417.091)" fill="#ed7d2b"/>
        <path id="패스_2486" data-name="패스 2486" d="M677.625,1587.179s1.035-1.441,2.84-4.177c2.148-3.254,4.525-9.657,7.41-17.865,3.03-8.617,6.624-19.218,11.116-30.248,1.386-3.4,2.858-6.851,4.424-10.292,2.8-6.135,10.486-5.288,13.223-12.224,0,0,10.676-24.044-8.949-24.708s-56.919,64.321-59.062,70.615C646.28,1565.171,634.834,1593.78,677.625,1587.179Z" transform="translate(-637.748 -1415.731)" fill="#f99746"/>
        <path id="패스_2487" data-name="패스 2487" d="M946.18,1798.9H918.246s-1.044-4.455.79-7.487c1.623-2.682,1-4.211-.2-6.43a10.854,10.854,0,0,0,4.7.886,9.841,9.841,0,0,0,4.154-1.461c1.2,1.371,6.35,7.205,7.959,8.361C937.478,1794.085,945.618,1793.617,946.18,1798.9Z" transform="translate(-832.147 -1627.457)" fill="#2b478b"/>
        <path id="패스_2488" data-name="패스 2488" d="M787.132,1636.391c3.03-8.617,6.624-19.218,11.116-30.248-1.173-8.357-3.7-15.667-7.958-18.614C790.289,1587.529,779.966,1619.509,787.132,1636.391Z" transform="translate(-737.005 -1486.985)" fill="#ed7d2b"/>
        <path id="패스_2489" data-name="패스 2489" d="M832.86,1497.31c1.682,12.61,4.051,53.3,15.638,72.723,3.736,6.26-9.412,9.77-9.483,9.751-1.764-.461-4.7-3.273-6.055-4.493-9.407-8.478-28.5-32.484-28.5-51.73,0-9.384,11.013-26.554,17.837-31.109A6.864,6.864,0,0,1,832.86,1497.31Z" transform="translate(-751.173 -1418.336)" fill="#f99746"/>
        <path id="패스_2490" data-name="패스 2490" d="M807.966,1360.674s-1.7-.674-6.5-.285c0,0,.255,1.871,3.792,2.056A2.821,2.821,0,0,0,807.966,1360.674Z" transform="translate(-749.038 -1324.839)" fill="#fff"/>
        <g id="그룹_3974" data-name="그룹 3974" transform="translate(100.438 32.408)">
          <g id="그룹_3973" data-name="그룹 3973">
            <path id="패스_2491" data-name="패스 2491" d="M1069.6,1360.173l-5.791-10.449-12.528,34.959,7.391,7.935Z" transform="translate(-1027.712 -1349.725)" fill="#163560"/>
            <path id="패스_2492" data-name="패스 2492" d="M980.677,1392.312l-11.646,33.269,30.956-6.944,10.928-32.445Z" transform="translate(-969.031 -1375.744)" fill="#1c468a"/>
            <path id="패스_2493" data-name="패스 2493" d="M969.834,1437.047l-.542-.949,11.02-31.484.551.841Z" transform="translate(-969.217 -1388.887)" fill="#efdece"/>
            <path id="패스_2494" data-name="패스 2494" d="M1007.752,1390.392l29.349-5.711,1.441.433-30.239,6.12Z" transform="translate(-996.658 -1374.665)" fill="#fcecdb"/>
          </g>
          <path id="패스_2495" data-name="패스 2495" d="M1089.679,1361.438l-6.262-9.941-3.993,11.223,8.813-1.715Z" transform="translate(-1047.795 -1350.989)" fill="#efdece"/>
        </g>
        <path id="패스_2496" data-name="패스 2496" d="M783.263,1412.51c-1.007-.193-3.167-1.008-5.353-1.609a4.487,4.487,0,0,0,1.582-1.769c.39-1.232.65-1.629-.65-1.239s-5.85,2.477-5.85,2.477l.012.006c-2.585.755-4.967,4.409-4.967,4.409s-32.005,11.25-35.856,11.444c-5.957.3-45.6-14.3-45.6-14.3-9.357,2.065-7.258,13.562-4.038,15.6s31.749,12.419,48.656,12.614c8.564.1,39.715-19.922,39.715-19.922s3.641-1.664,6.5-1.144,9.493,0,10.923-2.34S784.954,1412.835,783.263,1412.51Z" transform="translate(-662.241 -1358.716)" fill="#ffb27d"/>
        <path id="패스_2497" data-name="패스 2497" d="M703.451,1427.242s-3.546,11.225-15.724,13.78c0,0-20.111-6.2-10.1-19.9C677.63,1421.125,687.53,1413.768,703.451,1427.242Z" transform="translate(-658.69 -1366.829)" fill="#f9ddbf"/>
        <path id="패스_2498" data-name="패스 2498" d="M1097.224,1413.146l0,0a3.077,3.077,0,0,0-.107-.913s-2.869-4.538-3.808-4.723c-2.862-.565-2.862,3.2-2.255,5.633a9.88,9.88,0,0,0,2.369,4.2h0l-.114,3.551A7.6,7.6,0,0,0,1097.224,1413.146Z" transform="translate(-955.422 -1358.506)" fill="#ffb27d"/>
      </g>
      <g id="그룹_3975" data-name="그룹 3975" transform="translate(986.692 415.652)">
        <path id="패스_2499" data-name="패스 2499" d="M1994.874,831.11c1.046-25.867-20.635-37.359-42.8-37.359s-46.294,5.744-48.384,40.14c-1.344,22.128,10.451,35.744,44.418,35.744,11.456,0,20.359-1.807,27.178-5.029l16.979,15.087-8.344-20.854C1991.309,851.966,1994.423,842.273,1994.874,831.11Z" transform="translate(-1903.584 -793.751)" fill="#91b5f8"/>
      </g>
      <g id="그룹_3979" data-name="그룹 3979" transform="translate(988.727 459.043)">
        <path id="패스_2500" data-name="패스 2500" d="M2197.473,1396.719c5.26,9.307,11.934,12.932,11.934,12.932l27.868.2S2193.46,1389.619,2197.473,1396.719Z" transform="translate(-2115.117 -1266.269)" fill="#233862"/>
        <g id="그룹_3976" data-name="그룹 3976">
          <path id="패스_2501" data-name="패스 2501" d="M2213.569,1593.516a2.576,2.576,0,0,1,.44,2.758.021.021,0,0,1-.008.014c-.677,1.832-2.888,3.868-5.453,5.9-.327.261-.619.5-.874.718-.067.058-.133.115-.2.173s-.1.092-.151.134c-2.394,2.176-1.5,2.684-5.807,7.1-4.909,5.035-8.264,5.1-9.215,4.634-.8-.4.855-3.077,2.694-6.086.089-.145.177-.292.268-.439.245-.4.488-.806.731-1.208,2.156-3.622,1.621-5.333,1.154-10.749-.379-4.4-6.67-24.623-6.67-24.623l9.349-1.542s2.7,16.085,5.78,18.581c1.647,1.331,3.5,1.36,5.088,2.349q.168.1.33.212A12.254,12.254,0,0,1,2213.569,1593.516Z" transform="translate(-2110.315 -1391.195)" fill="#ffb27d"/>
          <path id="패스_2502" data-name="패스 2502" d="M2217.589,1645.636a2.577,2.577,0,0,1,.439,2.759.02.02,0,0,1-.007.014c-.827,1.83-2.982,3.855-5.462,5.88-.324.265-.61.509-.865.737-.067.057-.134.115-.2.173s-.1.092-.152.134c-2.394,2.176-1.5,2.685-5.807,7.1-4.908,5.035-8.263,5.1-9.215,4.635-.8-.4.855-3.077,2.694-6.086a20.767,20.767,0,0,0,8.731-6.339c2.96-3.723,4.951-8.52,6.969-11.292.112.069.222.139.33.212A12.281,12.281,0,0,1,2217.589,1645.636Z" transform="translate(-2114.335 -1443.315)" fill="#233862"/>
          <path id="패스_2503" data-name="패스 2503" d="M1938.687,1578.971c-.6,2.879-4.7,2.369-9.284,1.215s-3.5.187-10.028-.583-8.49-3.219-8.682-4.192c-.173-.863,3.058-1.145,6.523-1.519.436-.046.873-.1,1.312-.148,3.912-.463,6.793-2.965,10.358-5.012,3.377-1.939,8.453-9.9,8.453-9.9l8.954.773s-4.752,7.108-6.592,10.2c-1.083,1.818-1.043,4.234-.923,6.1A11.49,11.49,0,0,1,1938.687,1578.971Z" transform="translate(-1910.686 -1383.014)" fill="#ffb27d"/>
          <path id="패스_2504" data-name="패스 2504" d="M1929.4,1617.681c-4.582-1.154-3.5.187-10.028-.583s-8.49-3.219-8.682-4.192c-.173-.863,3.058-1.145,6.523-1.519l.032.067a18.419,18.419,0,0,0,9.335,2.974c4.431.139,9.135-1.1,12.195-1.027a11.491,11.491,0,0,1-.091,3.064C1938.09,1619.345,1933.985,1618.835,1929.4,1617.681Z" transform="translate(-1910.686 -1420.509)" fill="#233862"/>
          <path id="패스_2505" data-name="패스 2505" d="M2129.656,1394.47l8.216,22.6,10.727,29.5a17.713,17.713,0,0,0,5.812-.49,25.2,25.2,0,0,0,5.638-2.7s-2.813-31.617-8.349-49.794c-1.419-4.665-3.019-8.443-4.8-10.575C2138.194,1372.576,2129.656,1394.47,2129.656,1394.47Z" transform="translate(-2066.917 -1255.556)" fill="#233862"/>
          <path id="패스_2506" data-name="패스 2506" d="M2035.562,1295.4c5.5-1.731,21.133.652,36.831,3.84l3.33-5.406,33.974-2.412s11.029,24.927,4.783,40.716c-.918,2.321-3.156,3.286-6.211,3.314l0,0s-20.265.352-26.828.306c-16.886-.119-35.655-11.86-38.091-12.365-3.986-.826-5.639,7.146-9.69,15.5s-37.782,36.856-37.782,36.856-5.153.015-7.277-.8a7.172,7.172,0,0,1-3.113-2S2023.16,1299.309,2035.562,1295.4Z" transform="translate(-1964.054 -1192.223)" fill="#2b478b"/>
          <path id="패스_2507" data-name="패스 2507" d="M2280.571,1000.046c12.044,6.743,36.477,20.717,36.6,20.629,0,0,8.992,3.461,14.131.1,8.565-5.6,13.244-20.806-2.254-34.029-7.729-6.595-13.242-8.225-14.008-18.674-.415-5.668-8.028-24.42-20.907-22.782a19.585,19.585,0,0,1-3.244.19,12.044,12.044,0,0,0-6.541,1.64C2277.04,951.4,2262.462,997.341,2280.571,1000.046Z" transform="translate(-2168.373 -945.19)" fill="#233862"/>
          <path id="패스_2508" data-name="패스 2508" d="M2334.2,1069.975c-.053.034,5.935,2.126,9.961.377,3.788-1.642,6.692-7.834,6.635-7.838-1.717-.091-3.592-1.606-4.974-11.47l-.734.257-12.329,4.338s.864,3.952,1.413,7.713C2334.633,1066.51,2334.872,1069.534,2334.2,1069.975Z" transform="translate(-2211.825 -1020.715)" fill="#ffb27d"/>
          <path id="패스_2509" data-name="패스 2509" d="M2332.757,1056.28s.526,2.77,1.255,6.728c7.072-1.222,10.052-7.255,11.073-11.066Z" transform="translate(-2211.825 -1021.355)" fill="#ed975d"/>
          <path id="패스_2510" data-name="패스 2510" d="M2305.112,1007.111s16.841-2.139,15.347-12.607-.326-17.793-11.142-16.869-12.331,5.215-12.681,8.83S2300.693,1007.4,2305.112,1007.111Z" transform="translate(-2186.039 -968.282)" fill="#ffb27d"/>
          <path id="패스_2511" data-name="패스 2511" d="M2298.966,978.4s10.705,9.358,18.026,10.158,10.112-1.532,10.112-1.532a28.6,28.6,0,0,1-6.851-9.421,5.152,5.152,0,0,0-4.225-3.067C2310.8,974.053,2300.883,973.778,2298.966,978.4Z" transform="translate(-2187.716 -965.948)" fill="#233862"/>
          <path id="패스_2512" data-name="패스 2512" d="M2300.737,980.843s-3.628,3.458-4.781,6.034c-1.113,2.486-1.483,8.448-.628,10.823,0,0-5.537-10.956-2.321-16.237C2296.417,975.863,2300.737,980.843,2300.737,980.843Z" transform="translate(-2182.748 -969.172)" fill="#233862"/>
          <path id="패스_2513" data-name="패스 2513" d="M2287.724,1122.214c.268,34.062-.051,26.943,3.652,30.2.892.784,3.413,1.266,6.733,1.509,10.438.767,28.81-.824,29.521-2.749,2.456-6.661.77-8.748,2.851-18.957.218-1.086.485-2.261.8-3.541,1.726-7.011,3.374-9.388-2.492-20.711-5.32-10.257-10.861-18.591-11.367-18.295-14.283,8.343-15.381,1.238-15.381,1.238S2287.592,1105.6,2287.724,1122.214Z" transform="translate(-2179.694 -1048.268)" fill="#f9ddbf"/>
          <path id="패스_2514" data-name="패스 2514" d="M2158.332,1450.422l10.727,29.5a17.714,17.714,0,0,0,5.813-.49,25.191,25.191,0,0,0,5.637-2.7s-2.813-31.617-8.349-49.794Z" transform="translate(-2087.376 -1288.914)" fill="#2b478b"/>
          <path id="패스_2515" data-name="패스 2515" d="M2266.582,1094s-14.653,2.378-16.417,8.667-12.138,43.264-12.138,43.264,7.431,1.389,10.893-2.024,12.185-31.805,12.185-31.805Z" transform="translate(-2144.238 -1051.365)" fill="#f9ddbf"/>
          <path id="패스_2516" data-name="패스 2516" d="M2323.971,1224.481c10.438.767,28.809-.824,29.521-2.749,2.456-6.661.77-8.748,2.852-18.957l-4.937-14.22s.722,15.8-3.966,19.922-19.128,7.885-21.417,11.34A12.7,12.7,0,0,0,2323.971,1224.481Z" transform="translate(-2205.556 -1118.826)" fill="#f2ccaa"/>
          <path id="패스_2517" data-name="패스 2517" d="M2320.4,1286.9s-10.287-2.367-11.956-1.464-5.755,4.2-6.272,5.359,3.708-.854,5.079-1.211c.888-.231,3.217.6,4.37.99,4.851,1.655,7.837.843,7.837.843Z" transform="translate(-2189.969 -1187.799)" fill="#ffb27d"/>
          <path id="패스_2518" data-name="패스 2518" d="M2369.011,1089.663s13.829.95,18.571,7.663c6.675,9.451,19.766,49.617,12.064,54.908-8.674,5.958-39.295,1.3-39.295,1.3s-.987-4.775.449-7.071,24.525-5.859,25.6-6.916-13.159-20.851-13.137-24.044S2369.011,1089.663,2369.011,1089.663Z" transform="translate(-2231.277 -1048.268)" fill="#f9ddbf"/>
          <path id="패스_2519" data-name="패스 2519" d="M2312.259,1295.939a19.909,19.909,0,0,1-2.889,3.1,2.107,2.107,0,0,1-1.167.241l1.473-2.608Z" transform="translate(-2194.307 -1195.442)" fill="#ffb27d"/>
          <path id="패스_2520" data-name="패스 2520" d="M2308.486,1285.942l-6.3,3a1.118,1.118,0,0,0,1.037.409,14.961,14.961,0,0,0,2.727-.729Z" transform="translate(-2190.015 -1188.309)" fill="#ffb27d"/>
        </g>
        <g id="그룹_3978" data-name="그룹 3978" transform="translate(52.084 70.492)">
          <g id="그룹_3977" data-name="그룹 3977">
            <path id="패스_2521" data-name="패스 2521" d="M2156.79,1228.815l-49.65-.35-14.673-37.246,49.573.35Z" transform="translate(-2092.467 -1191.219)" fill="#f99746"/>
            <path id="패스_2522" data-name="패스 2522" d="M2141.684,1316.146l65.562.463-.01,1.447-64.98-.458Z" transform="translate(-2127.582 -1280.352)" fill="#ed7d2b"/>
          </g>
          <path id="패스_2523" data-name="패스 2523" d="M2187.652,1250.851a1.72,1.72,0,0,1,1.7-2.352,3.386,3.386,0,0,1,3.025,2.385,1.72,1.72,0,0,1-1.7,2.352A3.388,3.388,0,0,1,2187.652,1250.851Z" transform="translate(-2160.314 -1232.087)" fill="#fff"/>
        </g>
      </g>
      <g id="그룹_3980" data-name="그룹 3980" transform="translate(768.327 684.33)">
        <rect id="사각형_1558" data-name="사각형 1558" width="29.989" height="150.852" transform="translate(35.068 29.989) rotate(-89.989)" fill="#c65447"/>
        <path id="패스_2524" data-name="패스 2524" d="M1176.522,1761.468l-22.171-9.484-12.9-5.516,13.2-5.641,21.875-9.348s2.919,7.3,2.963,14.169C1179.56,1756.424,1176.522,1761.468,1176.522,1761.468Z" transform="translate(-1141.455 -1731.478)" fill="#fcecdb"/>
        <path id="패스_2525" data-name="패스 2525" d="M1807.884,1741.533l0,9.48a10.559,10.559,0,0,1-10.562,10.558h-6.978l.006-29.989h7.589A9.949,9.949,0,0,1,1807.884,1741.533Z" transform="translate(-1604.423 -1731.552)" fill="#fcecdb"/>
        <path id="패스_2526" data-name="패스 2526" d="M1154.654,1764.1c.549,3.03,1.026,7.673-.3,11.157l-12.9-5.516Z" transform="translate(-1141.455 -1754.757)" fill="#2b478b"/>
      </g>
      <g id="그룹_3982" data-name="그룹 3982" transform="translate(823.642 430.881)">
        <path id="패스_2527" data-name="패스 2527" d="M1377.042,1177.712s2.7,11.724,10.579,11.724c6.751,0,16.013-15.261,16.013-15.261Z" transform="translate(-1364.856 -1080.405)" fill="#f99746"/>
        <path id="패스_2528" data-name="패스 2528" d="M1540.5,1420.371l-5.061,3.48s-24.338-25.941-30.213-50.807a38.674,38.674,0,0,1-1.023-12.973s-.355-1.126-.977-3.117c-.028-.087-.055-.176-.083-.266-.272-.874-.6-1.9-.961-3.065-1.18-3.757-2.8-8.9-4.648-14.753-4.253-13.472-13.982-43.854-18.139-56.492l29.878-10.81s3.394,7.739,8.271,28.774c.751,2.745,1.5,5.781,2.206,9.089.8,3.747,1.54,7.843,2.16,12.269a188.329,188.329,0,0,1,1.791,25.186c.017,3.763-.075,7.666-.3,11.693a51.6,51.6,0,0,0,1.1,11.364C1528.261,1390.407,1540.5,1420.371,1540.5,1420.371Z" transform="translate(-1437.88 -1149.893)" fill="#2b478b"/>
        <path id="패스_2529" data-name="패스 2529" d="M1687.42,1803.337h-24.156s-.9-3.853.683-6.475c1.4-2.319.866-3.641-.174-5.56a9.39,9.39,0,0,0,4.068.766,8.512,8.512,0,0,0,3.592-1.264c1.039,1.185,5.491,6.231,6.882,7.23C1679.894,1799.169,1686.934,1798.765,1687.42,1803.337Z" transform="translate(-1568.887 -1520.358)" fill="#233862"/>
        <path id="패스_2530" data-name="패스 2530" d="M1521.906,1321.7l-18.767,34.988c-.272-.874-.6-1.9-.961-3.065-1.18-3.757-2.8-8.9-4.648-14.753-4.253-13.472-13.982-43.854-18.139-56.492l29.878-10.81s3.394,7.739,8.271,28.774c.751,2.745,1.5,5.781,2.206,9.089C1520.543,1313.177,1521.286,1317.274,1521.906,1321.7Z" transform="translate(-1437.88 -1149.893)" fill="#233862"/>
        <path id="패스_2531" data-name="패스 2531" d="M1475.769,1806.534s-1.672,4.1-.1,7.561h13.139s.273-3.12-4.5-6.737C1480.7,1804.619,1475.769,1806.534,1475.769,1806.534Z" transform="translate(-1434.745 -1531.115)" fill="#233862"/>
        <path id="패스_2532" data-name="패스 2532" d="M1485.164,855.236c.008-.654.344-7.707,11.059-8.333,0,0-5.259.756-6.114,3.1,0,0,3.522-2.951,6.468-2.1s4.787,5.933,4.845,7.617-1.436,7.156-3.28,7.663a5.673,5.673,0,0,1-2.248.057,25.229,25.229,0,0,1,1.5,2.537c4.491,8.681.617,18.907-3.029,18.046-2.338-.552-3.76,3.5-3.76,3.5l-22.486-19.336S1476,850.626,1485.164,855.236Z" transform="translate(-1429.841 -846.903)" fill="#2c3a64"/>
        <path id="패스_2533" data-name="패스 2533" d="M1478.267,1006.909a27.3,27.3,0,0,0,9.543,4.061c14.71,3.4,20.348-9.034,22.465-17.568a12.644,12.644,0,0,0-4.984-1.531c-1.063-.125-2.181-.208-3.107-.254-1.652-1.265-4.113-6.444-4.657-14.483l-.692.186-11.594,3.173s.531,3.686.792,7.169c.2,2.726.233,5.331-.284,5.968-.9.2-1.447.324-1.447.324a.026.026,0,0,1-.006.011A74.623,74.623,0,0,0,1478.267,1006.909Z" transform="translate(-1437.078 -939.82)" fill="#ffb27d"/>
        <path id="패스_2534" data-name="패스 2534" d="M1502.6,980.964s.533,3.682.791,7.168c6.568-.658,9.616-6.911,10.8-10.341Z" transform="translate(-1454.443 -940.289)" fill="#ed985f"/>
        <path id="패스_2535" data-name="패스 2535" d="M1476.956,939.046s15.122-3.886,12.557-13.266-2.341-16.2-12.1-14.115-10.653,6.175-10.559,9.514S1472.956,939.815,1476.956,939.046Z" transform="translate(-1428.929 -892.841)" fill="#ffb27d"/>
        <path id="패스_2536" data-name="패스 2536" d="M1461.928,911.684c1.553-3.46,3.481-3.324,4.7-2.746a10.912,10.912,0,0,1,14.125-1.551,18.576,18.576,0,0,0,8.765,8.974s-2.278,2.449-9.051,2.559a11.147,11.147,0,0,1-6.095-2.129,36.429,36.429,0,0,0,8.072,5.723c-8.515-1.418-14.435-11.094-15.043-12.122a12.237,12.237,0,0,0-2.081,5.277c-.095,2.594.918,7.6-.561,7.829C1464.759,923.5,1459.6,916.873,1461.928,911.684Z" transform="translate(-1424.991 -888.683)" fill="#2c3a64"/>
        <path id="패스_2537" data-name="패스 2537" d="M1440.268,1028.034s25.4-6.166,36.441,2.942l-5.519,76.969-49.67-12s1.4-4.87,10.922-17.822S1437.824,1046.176,1440.268,1028.034Z" transform="translate(-1396.591 -974.681)" fill="#ffb27d"/>
        <path id="패스_2538" data-name="패스 2538" d="M1448.291,1266.411s-.029.261-.081.758c-.023.213-.052.472-.083.774-.214,1.995-.619,5.823-1.14,10.8-1.363,13.054-3.5,34.02-4.959,50.569-1.14,12.939-1.864,23.179-1.473,24.823,1.176,4.948,0,64.1,0,64.1-4.221,2.025-10.622,0-10.622,0s-11.245-53.3-9.671-60.711a25.517,25.517,0,0,0-1.052-13.733c-8.731-40.661-7.776-63.2-6.042-73.985a45.5,45.5,0,0,1,1.494-6.587,13.673,13.673,0,0,1,.6-1.619A41.092,41.092,0,0,1,1448.291,1266.411Z" transform="translate(-1389.807 -1141.715)" fill="#2b478b"/>
        <path id="패스_2539" data-name="패스 2539" d="M1468.133,1054.391c-1.225,9.259-6.131,20.59-7.883,26.689,0,0,2.928,21.175.133,26.989a2.574,2.574,0,0,1-1.192,1.336c-10.357,4.512-50.692.13-52.394-12.88-.619-4.728,15.363-21.357,16.294-23.375.387-.834.8-3.54-1.075-9.147-2.656,8.189-17.315,5.834-17.315,5.834,1.72-2.944,6.007-23.312,10.793-32.506,3.6-6.911,13.207-7.912,13.207-7.912s4,6.342,13.67,5.443,11.439-6.819,11.439-6.819,8.577,1.14,11.22,3.273C1465.487,1031.685,1469.741,1042.259,1468.133,1054.391Z" transform="translate(-1384.59 -976.143)" fill="#f99746"/>
        <path id="패스_2540" data-name="패스 2540" d="M1568.235,1171.482s2.929,21.175.133,26.989c-7.546-3.787-13.493-14.033-12.12-25.447,1.015-8.437,2.523-10.362,7.037-15.19,3.317-3.547,10.985-3.748,10.384-2.06C1571.88,1160.8,1569.161,1168.26,1568.235,1171.482Z" transform="translate(-1492.575 -1066.544)" fill="#ed7d2b"/>
        <g id="그룹_3981" data-name="그룹 3981" transform="translate(0 72.08)">
          <path id="패스_2541" data-name="패스 2541" d="M1417.4,1125.757l17.294,27.745h-29.426l-16.477-27.145Z" transform="translate(-1373.239 -1117.94)" fill="#1c468a"/>
          <path id="패스_2542" data-name="패스 2542" d="M1505.037,1149.934l.3-.969-16.365-26.257-.328.873Z" transform="translate(-1444.48 -1115.764)" fill="#efdece"/>
          <path id="패스_2543" data-name="패스 2543" d="M1417.728,1122.708l-27.721.79-1.217.684,28.609-.6Z" transform="translate(-1373.239 -1115.764)" fill="#fcecdb"/>
          <path id="패스_2544" data-name="패스 2544" d="M1350.064,1106.891l-15.552-8.418,18.128,28.467,13.9,7.1Z" transform="translate(-1334.513 -1098.474)" fill="#163560"/>
        </g>
        <path id="패스_2545" data-name="패스 2545" d="M1567.615,1174.79c-1.666.761-5.941,5.8-7.468,6.309-6.861,2.3-36.064-3.814-36.064-3.814l.9-5.115s28.662.761,31.813-.082c.593-.16,3.691-5,4.881-5.7Z" transform="translate(-1469.767 -1074.85)" fill="#ffb27d"/>
        <path id="패스_2546" data-name="패스 2546" d="M1486.623,1180.911s-3.457-2.813-5.792-2.177-5.772,3.59-7.048,4.29-4.743,3.2-2.986,4.713,7.228.214,9.394-.946,5.527-.763,5.527-.763Z" transform="translate(-1431.402 -1083.591)" fill="#ffb27d"/>
        <path id="패스_2547" data-name="패스 2547" d="M1494.105,1177.454s-4.2-.5-5.348-.478-.836.274-.2,1.165,2.82,1.231,2.921,1.542S1494.105,1177.454,1494.105,1177.454Z" transform="translate(-1444.014 -1082.403)" fill="#ffb27d"/>
        <path id="패스_2548" data-name="패스 2548" d="M1566.947,1028.043s12.457,1.478,15.887,6.819c4.337,6.754,14.571,33.654,14.241,40.432,0,0-7.483,12.735-33.143,10.7,0,0-2.67-9.429,2.728-12.543,0,0,13.179-2.344,14.7-3.681l-10.746-19.528Z" transform="translate(-1497.728 -976.143)" fill="#f99746"/>
        <path id="패스_2549" data-name="패스 2549" d="M1383.71,1161.186c-.386-1.569-3.808-.589-4.962.314a4.682,4.682,0,0,0-.877,1.031c-.036-.263-.067-.514-.084-.71-.065-.737-.924-2.058-1.137-1.069s-.564,5.143-.564,5.143c-.042,3.346,2.109,4.726,3.491,3.638S1384.1,1162.756,1383.71,1161.186Z" transform="translate(-1364.174 -1070.546)" fill="#ffb27d"/>
      </g>
    </g>
    <text id="Lorem_ipsum_dolor_si" data-name="Lorem ipsum dolor si" transform="matrix(0.996, -0.087, 0.087, 0.996, 1348.807, 3447.9)" fill="#fff" font-size="14" font-family="Lato-Bold, Lato" font-weight="700"><tspan x="0" y="11">ArkEdison</tspan></text>
  </g>
</svg>
